<mxfile host="app.diagrams.net" agent="Mozilla/5.0 (Windows NT 10.0; Win64; x64) AppleWebKit/537.36 (KHTML, like Gecko) Chrome/134.0.0.0 Safari/537.36" version="26.1.1">
  <diagram id="7gcUSTIZ7YSJ5vT40chW" name="Page-1">
    <mxGraphModel dx="1509" dy="785" grid="1" gridSize="10" guides="1" tooltips="1" connect="1" arrows="1" fold="1" page="1" pageScale="1" pageWidth="1169" pageHeight="827" math="0" shadow="0">
      <root>
        <mxCell id="0" />
        <mxCell id="1" parent="0" />
        <mxCell id="SZY12_XKgGBlkoAp8IEY-2" value="Databricks&lt;br&gt;Spark" style="aspect=fixed;html=1;perimeter=none;align=center;shadow=0;dashed=0;image;fontSize=12;image=img/lib/mscae/Databricks.svg;" parent="1" vertex="1">
          <mxGeometry x="570" y="400" width="47.5" height="50" as="geometry" />
        </mxCell>
        <mxCell id="BnGcvVGwKc2fh8Fx1BBk-8" style="edgeStyle=orthogonalEdgeStyle;rounded=0;orthogonalLoop=1;jettySize=auto;html=1;entryX=0;entryY=0.75;entryDx=0;entryDy=0;" edge="1" parent="1" source="SZY12_XKgGBlkoAp8IEY-6" target="BnGcvVGwKc2fh8Fx1BBk-1">
          <mxGeometry relative="1" as="geometry" />
        </mxCell>
        <mxCell id="SZY12_XKgGBlkoAp8IEY-6" value="CosmosDB" style="aspect=fixed;html=1;perimeter=none;align=center;shadow=0;dashed=0;image;fontSize=12;image=img/lib/mscae/CosmosDB.svg;" parent="1" vertex="1">
          <mxGeometry x="30" y="589" width="120" height="120" as="geometry" />
        </mxCell>
        <mxCell id="SZY12_XKgGBlkoAp8IEY-10" value="Azure SQL&amp;nbsp;" style="aspect=fixed;html=1;perimeter=none;align=center;shadow=0;dashed=0;image;fontSize=12;image=img/lib/mscae/SQL_DataWarehouse.svg;" parent="1" vertex="1">
          <mxGeometry x="946.6" y="235" width="113.4" height="110" as="geometry" />
        </mxCell>
        <mxCell id="BnGcvVGwKc2fh8Fx1BBk-15" style="edgeStyle=orthogonalEdgeStyle;rounded=0;orthogonalLoop=1;jettySize=auto;html=1;entryX=0;entryY=0.5;entryDx=0;entryDy=0;" edge="1" parent="1" source="BnGcvVGwKc2fh8Fx1BBk-1" target="BnGcvVGwKc2fh8Fx1BBk-9">
          <mxGeometry relative="1" as="geometry" />
        </mxCell>
        <mxCell id="BnGcvVGwKc2fh8Fx1BBk-1" value="Azure Data Factory" style="shape=image;verticalLabelPosition=bottom;labelBackgroundColor=#ffffff;verticalAlign=top;aspect=fixed;imageAspect=0;image=data:image/svg+xml,PHN2ZyB4bWxuczpkYz0iaHR0cDovL3B1cmwub3JnL2RjL2VsZW1lbnRzLzEuMS8iIHhtbG5zOmNjPSJodHRwOi8vY3JlYXRpdmVjb21tb25zLm9yZy9ucyMiIHhtbG5zOnJkZj0iaHR0cDovL3d3dy53My5vcmcvMTk5OS8wMi8yMi1yZGYtc3ludGF4LW5zIyIgeG1sbnM6c3ZnPSJodHRwOi8vd3d3LnczLm9yZy8yMDAwL3N2ZyIgeG1sbnM9Imh0dHA6Ly93d3cudzMub3JnLzIwMDAvc3ZnIiB4bWxuczpzb2RpcG9kaT0iaHR0cDovL3NvZGlwb2RpLnNvdXJjZWZvcmdlLm5ldC9EVEQvc29kaXBvZGktMC5kdGQiIHhtbG5zOmlua3NjYXBlPSJodHRwOi8vd3d3Lmlua3NjYXBlLm9yZy9uYW1lc3BhY2VzL2lua3NjYXBlIiB2ZXJzaW9uPSIxLjEiIGlkPSJzdmc1Njg2MSIgaW5rc2NhcGU6dmVyc2lvbj0iMC45Mi4zICgyNDA1NTQ2LCAyMDE4LTAzLTExKSIgc29kaXBvZGk6ZG9jbmFtZT0iYXp1cmVfZGF0YV9mYWN0b3J5LnN2ZyIgeD0iMHB4IiB5PSIwcHgiIHZpZXdCb3g9IjAgMCAxMDAuMSA5OS45IiB4bWw6c3BhY2U9InByZXNlcnZlIiB3aWR0aD0iMTAwLjEiIGhlaWdodD0iOTkuOTAwMDAyIj48bWV0YWRhdGEgaWQ9Im1ldGFkYXRhNjgyMyI+PHJkZjpSREY+PGNjOldvcmsgcmRmOmFib3V0PSIiPjxkYzpmb3JtYXQ+aW1hZ2Uvc3ZnK3htbDwvZGM6Zm9ybWF0PjxkYzp0eXBlIHJkZjpyZXNvdXJjZT0iaHR0cDovL3B1cmwub3JnL2RjL2RjbWl0eXBlL1N0aWxsSW1hZ2UiLz48ZGM6dGl0bGUvPjwvY2M6V29yaz48L3JkZjpSREY+PC9tZXRhZGF0YT48ZGVmcyBpZD0iZGVmczY4MjEiLz4mI3hhOzxmaWx0ZXIgaWQ9ImZpbHRlcl8yIj4mI3hhOwk8ZmVHYXVzc2lhbkJsdXIgaWQ9ImZlR2F1c3NpYW5CbHVyNTY4MTAiIHN0ZERldmlhdGlvbj0iMiIvPiYjeGE7PC9maWx0ZXI+JiN4YTs8c29kaXBvZGk6bmFtZWR2aWV3IGJvcmRlcmNvbG9yPSIjNjY2NjY2IiBib3JkZXJvcGFjaXR5PSIxIiBmaXQtbWFyZ2luLWJvdHRvbT0iMCIgZml0LW1hcmdpbi1sZWZ0PSIwIiBmaXQtbWFyZ2luLXJpZ2h0PSIwIiBmaXQtbWFyZ2luLXRvcD0iMCIgZ3JpZHRvbGVyYW5jZT0iMTAiIGd1aWRldG9sZXJhbmNlPSIxMCIgaWQ9Im5hbWVkdmlldzU2ODYzIiBpbmtzY2FwZTpjdXJyZW50LWxheWVyPSJzdmc1Njg2MSIgaW5rc2NhcGU6Y3g9Ii0yMi41MTIwNzIiIGlua3NjYXBlOmN5PSI1Ni44MTcyNzkiIGlua3NjYXBlOnBhZ2VvcGFjaXR5PSIwIiBpbmtzY2FwZTpwYWdlc2hhZG93PSIyIiBpbmtzY2FwZTp3aW5kb3ctaGVpZ2h0PSIxMDE3IiBpbmtzY2FwZTp3aW5kb3ctbWF4aW1pemVkPSIxIiBpbmtzY2FwZTp3aW5kb3ctd2lkdGg9IjE5MjAiIGlua3NjYXBlOndpbmRvdy14PSItOCIgaW5rc2NhcGU6d2luZG93LXk9Ii04IiBpbmtzY2FwZTp6b29tPSIzLjY5Njc5MDciIG9iamVjdHRvbGVyYW5jZT0iMTAiIHBhZ2Vjb2xvcj0iI2ZmZmZmZiIgc2hvd2dyaWQ9ImZhbHNlIj4mI3hhOwk8L3NvZGlwb2RpOm5hbWVkdmlldz4mI3hhOyYjeGE7PHBhdGggaWQ9InBhdGg1NjgyMyIgaW5rc2NhcGU6Y29ubmVjdG9yLWN1cnZhdHVyZT0iMCIgc3R5bGU9ImZpbGw6IzU5YjRkOSIgZD0iTSA5OS45LDU4Ljg2IFYgMzQuNjMgTCA3Mi40Nyw1OC40NiBoIC0wLjYgViAzNC42MyBMIDQ0LjQ0LDU4LjQ2IFYgOC42MSBDIDQ0LjQ0LDQuNCAzNS4wMywwLjIgMjIuNjIsMC4yIDEwLjIxLDAuMiAwLDQuMiAwLDguNjEgViA5OS45IEggMTAwLjEgWiBNIDIyLjYyLDEyLjYxIGMgLTkuMDEsMCAtMTYuMjEsLTIuMiAtMTYuMjEsLTQuNiAwLC0yLjQgNy4yLC00LjYxIDE2LjIxLC00LjYxIDkuMDEsMCAxNi4yMiwyLjAxIDE2LjIyLDQuNjEgLTAuMiwyLjQgLTcuNDEsNC42IC0xNi4yMiw0LjYgeiBNIDY5Ljg3LDgzLjY4IEggNTguODYgViA3Mi42NyBoIDExLjAxIHogbSAtMTkuNDIsMCBIIDM5LjQ0IFYgNzIuNjcgaCAxMS4wMSB6IG0gMjguMDMsMCBWIDcyLjY3IGggMTEuMDEgdiAxMS4wMSB6Ii8+JiN4YTsmI3hhOzxyZWN0IGlkPSJyZWN0NTY4MzEiIHg9IjAiIHk9IjguMDEwMDAwMiIgc3R5bGU9ImZpbGw6IzM5OTljNiIgd2lkdGg9IjIyLjIxOTk5OSIgaGVpZ2h0PSI5MS44ODk5OTkiLz4mI3hhOyYjeGE7PHBhdGggaWQ9InBhdGg1NjgzOSIgaW5rc2NhcGU6Y29ubmVjdG9yLWN1cnZhdHVyZT0iMCIgc3R5bGU9ImZpbGw6I2ZmZmZmZiIgZD0ibSA0NC4yNCw4LjAxIGMgMCw0LjQgLTEwLjAxLDguMDEgLTIyLjIyLDguMDEgQyA5LjgxLDE2LjAyIDAsMTIuNDEgMCw4LjAxIDAsMy42IDEwLjAxLDAgMjIuMjIsMCAzNC40MywwIDQ0LjI0LDMuNCA0NC4yNCw4LjAxIFoiLz4mI3hhOyYjeGE7PHBhdGggaWQ9InBhdGg1Njg0NyIgaW5rc2NhcGU6Y29ubmVjdG9yLWN1cnZhdHVyZT0iMCIgc3R5bGU9ImZpbGw6IzdmYmEwMCIgZD0ibSAzOS44Myw3LjQxIGMgMCwzIC03LjgsNS4yMSAtMTcuNjEsNS4yMSAtOS44MSwwIC0xNy42MiwtMi4yMSAtMTcuNjIsLTUuMjEgMCwtMyA3LjgxLC01LjIgMTcuNjIsLTUuMiA5LjgxLDAgMTcuNjEsMi40IDE3LjYxLDUuMiB6Ii8+JiN4YTsmI3hhOzxwYXRoIGlkPSJwYXRoNTY4NTUiIGlua3NjYXBlOmNvbm5lY3Rvci1jdXJ2YXR1cmU9IjAiIHN0eWxlPSJmaWxsOiNiOGQ0MzIiIGQ9Im0gMzYuMDMsMTAuNjEgYyAyLjQsLTAuOCAzLjYsLTIgMy42LC0zLjIxIDAsLTMgLTcuOCwtNS4yIC0xNy42MSwtNS4yIEMgMTIuMjEsMi4yIDQuNCw0LjYgNC40LDcuNCA0LjYsOC42MSA2LDkuODEgOC4yLDEwLjYxIGMgMy4yMSwtMS4yIDguMjEsLTIgMTQuMDIsLTIgNS42LDAgMTAuNjEsMC44IDEzLjgxLDIgeiIvPiYjeGE7PC9zdmc+;" vertex="1" parent="1">
          <mxGeometry x="250" y="329" width="169" height="169" as="geometry" />
        </mxCell>
        <mxCell id="BnGcvVGwKc2fh8Fx1BBk-3" value="Blob Storage" style="image;sketch=0;aspect=fixed;html=1;points=[];align=center;fontSize=12;image=img/lib/mscae/BlobBlock.svg;imageBackground=none;labelBorderColor=none;" vertex="1" parent="1">
          <mxGeometry x="30" y="170.5" width="120" height="100.8" as="geometry" />
        </mxCell>
        <mxCell id="BnGcvVGwKc2fh8Fx1BBk-5" value="On-Prem&lt;div&gt;MySQL Database&lt;/div&gt;" style="image;aspect=fixed;html=1;points=[];align=center;fontSize=12;image=img/lib/azure2/databases/Azure_Database_MySQL_Server.svg;" vertex="1" parent="1">
          <mxGeometry x="50" y="380" width="67.5" height="90" as="geometry" />
        </mxCell>
        <mxCell id="BnGcvVGwKc2fh8Fx1BBk-6" style="edgeStyle=orthogonalEdgeStyle;rounded=0;orthogonalLoop=1;jettySize=auto;html=1;entryX=-0.003;entryY=0.447;entryDx=0;entryDy=0;entryPerimeter=0;" edge="1" parent="1" source="BnGcvVGwKc2fh8Fx1BBk-3" target="BnGcvVGwKc2fh8Fx1BBk-1">
          <mxGeometry relative="1" as="geometry" />
        </mxCell>
        <mxCell id="BnGcvVGwKc2fh8Fx1BBk-7" style="edgeStyle=orthogonalEdgeStyle;rounded=0;orthogonalLoop=1;jettySize=auto;html=1;entryX=0;entryY=0.568;entryDx=0;entryDy=0;entryPerimeter=0;" edge="1" parent="1" source="BnGcvVGwKc2fh8Fx1BBk-5" target="BnGcvVGwKc2fh8Fx1BBk-1">
          <mxGeometry relative="1" as="geometry" />
        </mxCell>
        <mxCell id="BnGcvVGwKc2fh8Fx1BBk-24" style="edgeStyle=orthogonalEdgeStyle;rounded=0;orthogonalLoop=1;jettySize=auto;html=1;" edge="1" parent="1" source="BnGcvVGwKc2fh8Fx1BBk-9">
          <mxGeometry relative="1" as="geometry">
            <mxPoint x="950" y="290" as="targetPoint" />
            <Array as="points">
              <mxPoint x="950" y="290" />
            </Array>
          </mxGeometry>
        </mxCell>
        <mxCell id="BnGcvVGwKc2fh8Fx1BBk-9" value="" style="rounded=1;whiteSpace=wrap;html=1;" vertex="1" parent="1">
          <mxGeometry x="470" y="220" width="380" height="140" as="geometry" />
        </mxCell>
        <mxCell id="BnGcvVGwKc2fh8Fx1BBk-13" value="" style="edgeStyle=orthogonalEdgeStyle;rounded=0;orthogonalLoop=1;jettySize=auto;html=1;" edge="1" parent="1" source="BnGcvVGwKc2fh8Fx1BBk-10" target="BnGcvVGwKc2fh8Fx1BBk-11">
          <mxGeometry relative="1" as="geometry" />
        </mxCell>
        <mxCell id="BnGcvVGwKc2fh8Fx1BBk-10" value="B" style="shape=image;verticalLabelPosition=bottom;labelBackgroundColor=#ffffff;verticalAlign=top;aspect=fixed;imageAspect=0;image=data:image/svg+xml,PHN2ZyB4bWxuczpkYz0iaHR0cDovL3B1cmwub3JnL2RjL2VsZW1lbnRzLzEuMS8iIHhtbG5zOmNjPSJodHRwOi8vY3JlYXRpdmVjb21tb25zLm9yZy9ucyMiIHhtbG5zOnJkZj0iaHR0cDovL3d3dy53My5vcmcvMTk5OS8wMi8yMi1yZGYtc3ludGF4LW5zIyIgeG1sbnM6c3ZnPSJodHRwOi8vd3d3LnczLm9yZy8yMDAwL3N2ZyIgeG1sbnM9Imh0dHA6Ly93d3cudzMub3JnLzIwMDAvc3ZnIiB4bWxuczpzb2RpcG9kaT0iaHR0cDovL3NvZGlwb2RpLnNvdXJjZWZvcmdlLm5ldC9EVEQvc29kaXBvZGktMC5kdGQiIHhtbG5zOmlua3NjYXBlPSJodHRwOi8vd3d3Lmlua3NjYXBlLm9yZy9uYW1lc3BhY2VzL2lua3NjYXBlIiB2ZXJzaW9uPSIxLjEiIGlkPSJzdmc3NjkyMyIgaW5rc2NhcGU6dmVyc2lvbj0iMC45Mi4zICgyNDA1NTQ2LCAyMDE4LTAzLTExKSIgc29kaXBvZGk6ZG9jbmFtZT0iZGF0YV9sYWtlLnN2ZyIgeD0iMHB4IiB5PSIwcHgiIHZpZXdCb3g9IjAgMCA1My43OCA3MS4xMyIgeG1sOnNwYWNlPSJwcmVzZXJ2ZSIgd2lkdGg9IjUzLjc3OTk5OSIgaGVpZ2h0PSI3MS4xMjk5OTciPjxtZXRhZGF0YSBpZD0ibWV0YWRhdGEyMjgyMyI+PHJkZjpSREY+PGNjOldvcmsgcmRmOmFib3V0PSIiPjxkYzpmb3JtYXQ+aW1hZ2Uvc3ZnK3htbDwvZGM6Zm9ybWF0PjxkYzp0eXBlIHJkZjpyZXNvdXJjZT0iaHR0cDovL3B1cmwub3JnL2RjL2RjbWl0eXBlL1N0aWxsSW1hZ2UiLz48ZGM6dGl0bGUvPjwvY2M6V29yaz48L3JkZjpSREY+PC9tZXRhZGF0YT48ZGVmcyBpZD0iZGVmczIyODIxIi8+JiN4YTs8ZmlsdGVyIGlkPSJmaWx0ZXJfMiI+JiN4YTsJPGZlR2F1c3NpYW5CbHVyIGlkPSJmZUdhdXNzaWFuQmx1cjc2ODMwIiBzdGREZXZpYXRpb249IjIiLz4mI3hhOzwvZmlsdGVyPiYjeGE7PHNvZGlwb2RpOm5hbWVkdmlldyBib3JkZXJjb2xvcj0iIzY2NjY2NiIgYm9yZGVyb3BhY2l0eT0iMSIgZml0LW1hcmdpbi1ib3R0b209IjAiIGZpdC1tYXJnaW4tbGVmdD0iMCIgZml0LW1hcmdpbi1yaWdodD0iMCIgZml0LW1hcmdpbi10b3A9IjAiIGdyaWR0b2xlcmFuY2U9IjEwIiBndWlkZXRvbGVyYW5jZT0iMTAiIGlkPSJuYW1lZHZpZXc3NjkyNSIgaW5rc2NhcGU6Y3VycmVudC1sYXllcj0ic3ZnNzY5MjMiIGlua3NjYXBlOmN4PSItNTUuMzI3MzQ3IiBpbmtzY2FwZTpjeT0iNDcuNzkxMTMzIiBpbmtzY2FwZTpwYWdlb3BhY2l0eT0iMCIgaW5rc2NhcGU6cGFnZXNoYWRvdz0iMiIgaW5rc2NhcGU6d2luZG93LWhlaWdodD0iMTAxNyIgaW5rc2NhcGU6d2luZG93LW1heGltaXplZD0iMSIgaW5rc2NhcGU6d2luZG93LXdpZHRoPSIxOTIwIiBpbmtzY2FwZTp3aW5kb3cteD0iLTgiIGlua3NjYXBlOndpbmRvdy15PSItOCIgaW5rc2NhcGU6em9vbT0iNC44MDg5OTYiIG9iamVjdHRvbGVyYW5jZT0iMTAiIHBhZ2Vjb2xvcj0iI2ZmZmZmZiIgc2hvd2dyaWQ9ImZhbHNlIj4mI3hhOwk8L3NvZGlwb2RpOm5hbWVkdmlldz4mI3hhOyYjeGE7PHBhdGggaWQ9InBhdGg3Njg0NSIgaW5rc2NhcGU6Y29ubmVjdG9yLWN1cnZhdHVyZT0iMCIgc3R5bGU9ImZpbGw6IzNlM2UzZSIgZD0ibSAwLDkuNjggdiA1MS42NCBjIDAsNS40IDExLjk1LDkuNjcgMjYuODksOS42NyBWIDkuNjggWiIvPiYjeGE7JiN4YTs8cGF0aCBpZD0icGF0aDc2ODUzIiBpbmtzY2FwZTpjb25uZWN0b3ItY3VydmF0dXJlPSIwIiBzdHlsZT0iZmlsbDojYTBhMWEyIiBkPSJtIDI2LjQ2LDcxLjEzIGggMC40MyBjIDE0Ljc5LDAgMjYuODgsLTQuNDEgMjYuODgsLTkuNjcgViA5LjY3IEggMjYuNDYgWiIvPiYjeGE7JiN4YTs8cGF0aCBpZD0icGF0aDc2ODYxIiBpbmtzY2FwZTpjb25uZWN0b3ItY3VydmF0dXJlPSIwIiBzdHlsZT0iZmlsbDojZmZmZmZmIiBkPSJtIDUzLjc4LDkuNjggYyAwLDUuNCAtMTEuOTUsOS42NyAtMjYuODksOS42NyBDIDExLjk1LDE5LjM1IDAsMTUuMDggMCw5LjY4IDAsNC40MSAxMi4wOSwwIDI2Ljg5LDAgNDEuNjgsMCA1My43OCw0LjQxIDUzLjc4LDkuNjggWiIvPiYjeGE7JiN4YTs8cGF0aCBpZD0icGF0aDc2ODY5IiBpbmtzY2FwZTpjb25uZWN0b3ItY3VydmF0dXJlPSIwIiBzdHlsZT0iZmlsbDojN2ZiYTAwIiBkPSJtIDQ4LjIzLDkuMTEgYyAwLDMuNTYgLTkuNTMsNi40IC0yMS4zNCw2LjQgLTExLjgxLDAgLTIxLjM0LC0yLjg0IC0yMS4zNCwtNi40IDAsLTMuNTYgOS41MywtNi40IDIxLjM0LC02LjQgMTEuODEsMCAyMS4zNCwyLjg0IDIxLjM0LDYuNCB6Ii8+JiN4YTsmI3hhOzxwYXRoIGlkPSJwYXRoNzY4NzciIGlua3NjYXBlOmNvbm5lY3Rvci1jdXJ2YXR1cmU9IjAiIHN0eWxlPSJmaWxsOiNiOGQ0MzIiIGQ9Im0gNDMuODIsMTMuMDkgYyAyLjg0LC0xLjE0IDQuNDEsLTIuNDIgNC40MSwtMy45OCAwLC0zLjU2IC05LjUzLC02LjQgLTIxLjM0LC02LjQgLTExLjgxLDAgLTIxLjM0LDIuODQgLTIxLjM0LDYuNCAwLDEuNDIgMS43MSwyLjg0IDQuNDEsMy45OCAzLjg0LC0xLjU2IDkuOTYsLTIuNTYgMTYuOTMsLTIuNTYgNi44MywwIDEyLjk1LDEgMTYuOTMsMi41NiB6Ii8+JiN4YTsmI3hhOzxwYXRoIGlkPSJwYXRoNzY4ODgiIGlua3NjYXBlOmNvbm5lY3Rvci1jdXJ2YXR1cmU9IjAiIHN0eWxlPSJmaWxsOiMzOTk5YzYiIGQ9Ik0gMjYuNDYsNzEuMTMgViA0NS41MiBjIC0zLjk4LDAgLTcuNCwtMi4xMyAtOS4zOSwtNS4yNiAtMS45OSwzLjEzIC01LjI2LDUuMjYgLTkuMjUsNS4yNiAtMy4xMywwIC01LjgzLC0xLjI4IC03LjgyLC0zLjQxIHYgMTkuMzUgYyAwLDUuMjYgMTEuODEsOS41MyAyNi40Niw5LjY3IHoiLz4mI3hhOzxnIGlkPSJzaGFkb3c1MTA2LTM1IiB0cmFuc2Zvcm09InRyYW5zbGF0ZSgtNTIuNzY2OCwtMjIuNTAzNzU0KSI+JiN4YTs8L2c+JiN4YTsmI3hhOyYjeGE7JiN4YTs8cGF0aCBpZD0icGF0aDc2OTA4IiBpbmtzY2FwZTpjb25uZWN0b3ItY3VydmF0dXJlPSIwIiBzdHlsZT0iZmlsbDojNTliNGQ5IiBkPSJtIDQ1LjUzLDQ1LjUyIGMgLTMuOTgsMCAtNy41NCwtMi4xMyAtOS41MywtNS4yNiAtMS44NSwzLjEzIC01LjI3LDUuMTIgLTkuMjUsNS4yNiB2IDI1LjYxIGMgMTQuOCwwIDI2Ljg5LC00LjQxIDI2Ljg5LC05LjY3IFYgNDEuOTcgYyAtMS45OSwyLjEzIC00Ljg0LDMuNTUgLTguMTEsMy41NSB6Ii8+JiN4YTsmI3hhOyYjeGE7PC9zdmc+;fontSize=22;" vertex="1" parent="1">
          <mxGeometry x="490" y="240" width="60" height="78.14" as="geometry" />
        </mxCell>
        <mxCell id="BnGcvVGwKc2fh8Fx1BBk-14" value="" style="edgeStyle=orthogonalEdgeStyle;rounded=0;orthogonalLoop=1;jettySize=auto;html=1;" edge="1" parent="1" source="BnGcvVGwKc2fh8Fx1BBk-11" target="BnGcvVGwKc2fh8Fx1BBk-12">
          <mxGeometry relative="1" as="geometry" />
        </mxCell>
        <mxCell id="BnGcvVGwKc2fh8Fx1BBk-11" value="S" style="shape=image;verticalLabelPosition=bottom;labelBackgroundColor=#ffffff;verticalAlign=top;aspect=fixed;imageAspect=0;image=data:image/svg+xml,PHN2ZyB4bWxuczpkYz0iaHR0cDovL3B1cmwub3JnL2RjL2VsZW1lbnRzLzEuMS8iIHhtbG5zOmNjPSJodHRwOi8vY3JlYXRpdmVjb21tb25zLm9yZy9ucyMiIHhtbG5zOnJkZj0iaHR0cDovL3d3dy53My5vcmcvMTk5OS8wMi8yMi1yZGYtc3ludGF4LW5zIyIgeG1sbnM6c3ZnPSJodHRwOi8vd3d3LnczLm9yZy8yMDAwL3N2ZyIgeG1sbnM9Imh0dHA6Ly93d3cudzMub3JnLzIwMDAvc3ZnIiB4bWxuczpzb2RpcG9kaT0iaHR0cDovL3NvZGlwb2RpLnNvdXJjZWZvcmdlLm5ldC9EVEQvc29kaXBvZGktMC5kdGQiIHhtbG5zOmlua3NjYXBlPSJodHRwOi8vd3d3Lmlua3NjYXBlLm9yZy9uYW1lc3BhY2VzL2lua3NjYXBlIiB2ZXJzaW9uPSIxLjEiIGlkPSJzdmc3NjkyMyIgaW5rc2NhcGU6dmVyc2lvbj0iMC45Mi4zICgyNDA1NTQ2LCAyMDE4LTAzLTExKSIgc29kaXBvZGk6ZG9jbmFtZT0iZGF0YV9sYWtlLnN2ZyIgeD0iMHB4IiB5PSIwcHgiIHZpZXdCb3g9IjAgMCA1My43OCA3MS4xMyIgeG1sOnNwYWNlPSJwcmVzZXJ2ZSIgd2lkdGg9IjUzLjc3OTk5OSIgaGVpZ2h0PSI3MS4xMjk5OTciPjxtZXRhZGF0YSBpZD0ibWV0YWRhdGEyMjgyMyI+PHJkZjpSREY+PGNjOldvcmsgcmRmOmFib3V0PSIiPjxkYzpmb3JtYXQ+aW1hZ2Uvc3ZnK3htbDwvZGM6Zm9ybWF0PjxkYzp0eXBlIHJkZjpyZXNvdXJjZT0iaHR0cDovL3B1cmwub3JnL2RjL2RjbWl0eXBlL1N0aWxsSW1hZ2UiLz48ZGM6dGl0bGUvPjwvY2M6V29yaz48L3JkZjpSREY+PC9tZXRhZGF0YT48ZGVmcyBpZD0iZGVmczIyODIxIi8+JiN4YTs8ZmlsdGVyIGlkPSJmaWx0ZXJfMiI+JiN4YTsJPGZlR2F1c3NpYW5CbHVyIGlkPSJmZUdhdXNzaWFuQmx1cjc2ODMwIiBzdGREZXZpYXRpb249IjIiLz4mI3hhOzwvZmlsdGVyPiYjeGE7PHNvZGlwb2RpOm5hbWVkdmlldyBib3JkZXJjb2xvcj0iIzY2NjY2NiIgYm9yZGVyb3BhY2l0eT0iMSIgZml0LW1hcmdpbi1ib3R0b209IjAiIGZpdC1tYXJnaW4tbGVmdD0iMCIgZml0LW1hcmdpbi1yaWdodD0iMCIgZml0LW1hcmdpbi10b3A9IjAiIGdyaWR0b2xlcmFuY2U9IjEwIiBndWlkZXRvbGVyYW5jZT0iMTAiIGlkPSJuYW1lZHZpZXc3NjkyNSIgaW5rc2NhcGU6Y3VycmVudC1sYXllcj0ic3ZnNzY5MjMiIGlua3NjYXBlOmN4PSItNTUuMzI3MzQ3IiBpbmtzY2FwZTpjeT0iNDcuNzkxMTMzIiBpbmtzY2FwZTpwYWdlb3BhY2l0eT0iMCIgaW5rc2NhcGU6cGFnZXNoYWRvdz0iMiIgaW5rc2NhcGU6d2luZG93LWhlaWdodD0iMTAxNyIgaW5rc2NhcGU6d2luZG93LW1heGltaXplZD0iMSIgaW5rc2NhcGU6d2luZG93LXdpZHRoPSIxOTIwIiBpbmtzY2FwZTp3aW5kb3cteD0iLTgiIGlua3NjYXBlOndpbmRvdy15PSItOCIgaW5rc2NhcGU6em9vbT0iNC44MDg5OTYiIG9iamVjdHRvbGVyYW5jZT0iMTAiIHBhZ2Vjb2xvcj0iI2ZmZmZmZiIgc2hvd2dyaWQ9ImZhbHNlIj4mI3hhOwk8L3NvZGlwb2RpOm5hbWVkdmlldz4mI3hhOyYjeGE7PHBhdGggaWQ9InBhdGg3Njg0NSIgaW5rc2NhcGU6Y29ubmVjdG9yLWN1cnZhdHVyZT0iMCIgc3R5bGU9ImZpbGw6IzNlM2UzZSIgZD0ibSAwLDkuNjggdiA1MS42NCBjIDAsNS40IDExLjk1LDkuNjcgMjYuODksOS42NyBWIDkuNjggWiIvPiYjeGE7JiN4YTs8cGF0aCBpZD0icGF0aDc2ODUzIiBpbmtzY2FwZTpjb25uZWN0b3ItY3VydmF0dXJlPSIwIiBzdHlsZT0iZmlsbDojYTBhMWEyIiBkPSJtIDI2LjQ2LDcxLjEzIGggMC40MyBjIDE0Ljc5LDAgMjYuODgsLTQuNDEgMjYuODgsLTkuNjcgViA5LjY3IEggMjYuNDYgWiIvPiYjeGE7JiN4YTs8cGF0aCBpZD0icGF0aDc2ODYxIiBpbmtzY2FwZTpjb25uZWN0b3ItY3VydmF0dXJlPSIwIiBzdHlsZT0iZmlsbDojZmZmZmZmIiBkPSJtIDUzLjc4LDkuNjggYyAwLDUuNCAtMTEuOTUsOS42NyAtMjYuODksOS42NyBDIDExLjk1LDE5LjM1IDAsMTUuMDggMCw5LjY4IDAsNC40MSAxMi4wOSwwIDI2Ljg5LDAgNDEuNjgsMCA1My43OCw0LjQxIDUzLjc4LDkuNjggWiIvPiYjeGE7JiN4YTs8cGF0aCBpZD0icGF0aDc2ODY5IiBpbmtzY2FwZTpjb25uZWN0b3ItY3VydmF0dXJlPSIwIiBzdHlsZT0iZmlsbDojN2ZiYTAwIiBkPSJtIDQ4LjIzLDkuMTEgYyAwLDMuNTYgLTkuNTMsNi40IC0yMS4zNCw2LjQgLTExLjgxLDAgLTIxLjM0LC0yLjg0IC0yMS4zNCwtNi40IDAsLTMuNTYgOS41MywtNi40IDIxLjM0LC02LjQgMTEuODEsMCAyMS4zNCwyLjg0IDIxLjM0LDYuNCB6Ii8+JiN4YTsmI3hhOzxwYXRoIGlkPSJwYXRoNzY4NzciIGlua3NjYXBlOmNvbm5lY3Rvci1jdXJ2YXR1cmU9IjAiIHN0eWxlPSJmaWxsOiNiOGQ0MzIiIGQ9Im0gNDMuODIsMTMuMDkgYyAyLjg0LC0xLjE0IDQuNDEsLTIuNDIgNC40MSwtMy45OCAwLC0zLjU2IC05LjUzLC02LjQgLTIxLjM0LC02LjQgLTExLjgxLDAgLTIxLjM0LDIuODQgLTIxLjM0LDYuNCAwLDEuNDIgMS43MSwyLjg0IDQuNDEsMy45OCAzLjg0LC0xLjU2IDkuOTYsLTIuNTYgMTYuOTMsLTIuNTYgNi44MywwIDEyLjk1LDEgMTYuOTMsMi41NiB6Ii8+JiN4YTsmI3hhOzxwYXRoIGlkPSJwYXRoNzY4ODgiIGlua3NjYXBlOmNvbm5lY3Rvci1jdXJ2YXR1cmU9IjAiIHN0eWxlPSJmaWxsOiMzOTk5YzYiIGQ9Ik0gMjYuNDYsNzEuMTMgViA0NS41MiBjIC0zLjk4LDAgLTcuNCwtMi4xMyAtOS4zOSwtNS4yNiAtMS45OSwzLjEzIC01LjI2LDUuMjYgLTkuMjUsNS4yNiAtMy4xMywwIC01LjgzLC0xLjI4IC03LjgyLC0zLjQxIHYgMTkuMzUgYyAwLDUuMjYgMTEuODEsOS41MyAyNi40Niw5LjY3IHoiLz4mI3hhOzxnIGlkPSJzaGFkb3c1MTA2LTM1IiB0cmFuc2Zvcm09InRyYW5zbGF0ZSgtNTIuNzY2OCwtMjIuNTAzNzU0KSI+JiN4YTs8L2c+JiN4YTsmI3hhOyYjeGE7JiN4YTs8cGF0aCBpZD0icGF0aDc2OTA4IiBpbmtzY2FwZTpjb25uZWN0b3ItY3VydmF0dXJlPSIwIiBzdHlsZT0iZmlsbDojNTliNGQ5IiBkPSJtIDQ1LjUzLDQ1LjUyIGMgLTMuOTgsMCAtNy41NCwtMi4xMyAtOS41MywtNS4yNiAtMS44NSwzLjEzIC01LjI3LDUuMTIgLTkuMjUsNS4yNiB2IDI1LjYxIGMgMTQuOCwwIDI2Ljg5LC00LjQxIDI2Ljg5LC05LjY3IFYgNDEuOTcgYyAtMS45OSwyLjEzIC00Ljg0LDMuNTUgLTguMTEsMy41NSB6Ii8+JiN4YTsmI3hhOyYjeGE7PC9zdmc+;fontSize=22;" vertex="1" parent="1">
          <mxGeometry x="624.5" y="240" width="60" height="78.14" as="geometry" />
        </mxCell>
        <mxCell id="BnGcvVGwKc2fh8Fx1BBk-12" value="G" style="shape=image;verticalLabelPosition=bottom;labelBackgroundColor=#ffffff;verticalAlign=top;aspect=fixed;imageAspect=0;image=data:image/svg+xml,PHN2ZyB4bWxuczpkYz0iaHR0cDovL3B1cmwub3JnL2RjL2VsZW1lbnRzLzEuMS8iIHhtbG5zOmNjPSJodHRwOi8vY3JlYXRpdmVjb21tb25zLm9yZy9ucyMiIHhtbG5zOnJkZj0iaHR0cDovL3d3dy53My5vcmcvMTk5OS8wMi8yMi1yZGYtc3ludGF4LW5zIyIgeG1sbnM6c3ZnPSJodHRwOi8vd3d3LnczLm9yZy8yMDAwL3N2ZyIgeG1sbnM9Imh0dHA6Ly93d3cudzMub3JnLzIwMDAvc3ZnIiB4bWxuczpzb2RpcG9kaT0iaHR0cDovL3NvZGlwb2RpLnNvdXJjZWZvcmdlLm5ldC9EVEQvc29kaXBvZGktMC5kdGQiIHhtbG5zOmlua3NjYXBlPSJodHRwOi8vd3d3Lmlua3NjYXBlLm9yZy9uYW1lc3BhY2VzL2lua3NjYXBlIiB2ZXJzaW9uPSIxLjEiIGlkPSJzdmc3NjkyMyIgaW5rc2NhcGU6dmVyc2lvbj0iMC45Mi4zICgyNDA1NTQ2LCAyMDE4LTAzLTExKSIgc29kaXBvZGk6ZG9jbmFtZT0iZGF0YV9sYWtlLnN2ZyIgeD0iMHB4IiB5PSIwcHgiIHZpZXdCb3g9IjAgMCA1My43OCA3MS4xMyIgeG1sOnNwYWNlPSJwcmVzZXJ2ZSIgd2lkdGg9IjUzLjc3OTk5OSIgaGVpZ2h0PSI3MS4xMjk5OTciPjxtZXRhZGF0YSBpZD0ibWV0YWRhdGEyMjgyMyI+PHJkZjpSREY+PGNjOldvcmsgcmRmOmFib3V0PSIiPjxkYzpmb3JtYXQ+aW1hZ2Uvc3ZnK3htbDwvZGM6Zm9ybWF0PjxkYzp0eXBlIHJkZjpyZXNvdXJjZT0iaHR0cDovL3B1cmwub3JnL2RjL2RjbWl0eXBlL1N0aWxsSW1hZ2UiLz48ZGM6dGl0bGUvPjwvY2M6V29yaz48L3JkZjpSREY+PC9tZXRhZGF0YT48ZGVmcyBpZD0iZGVmczIyODIxIi8+JiN4YTs8ZmlsdGVyIGlkPSJmaWx0ZXJfMiI+JiN4YTsJPGZlR2F1c3NpYW5CbHVyIGlkPSJmZUdhdXNzaWFuQmx1cjc2ODMwIiBzdGREZXZpYXRpb249IjIiLz4mI3hhOzwvZmlsdGVyPiYjeGE7PHNvZGlwb2RpOm5hbWVkdmlldyBib3JkZXJjb2xvcj0iIzY2NjY2NiIgYm9yZGVyb3BhY2l0eT0iMSIgZml0LW1hcmdpbi1ib3R0b209IjAiIGZpdC1tYXJnaW4tbGVmdD0iMCIgZml0LW1hcmdpbi1yaWdodD0iMCIgZml0LW1hcmdpbi10b3A9IjAiIGdyaWR0b2xlcmFuY2U9IjEwIiBndWlkZXRvbGVyYW5jZT0iMTAiIGlkPSJuYW1lZHZpZXc3NjkyNSIgaW5rc2NhcGU6Y3VycmVudC1sYXllcj0ic3ZnNzY5MjMiIGlua3NjYXBlOmN4PSItNTUuMzI3MzQ3IiBpbmtzY2FwZTpjeT0iNDcuNzkxMTMzIiBpbmtzY2FwZTpwYWdlb3BhY2l0eT0iMCIgaW5rc2NhcGU6cGFnZXNoYWRvdz0iMiIgaW5rc2NhcGU6d2luZG93LWhlaWdodD0iMTAxNyIgaW5rc2NhcGU6d2luZG93LW1heGltaXplZD0iMSIgaW5rc2NhcGU6d2luZG93LXdpZHRoPSIxOTIwIiBpbmtzY2FwZTp3aW5kb3cteD0iLTgiIGlua3NjYXBlOndpbmRvdy15PSItOCIgaW5rc2NhcGU6em9vbT0iNC44MDg5OTYiIG9iamVjdHRvbGVyYW5jZT0iMTAiIHBhZ2Vjb2xvcj0iI2ZmZmZmZiIgc2hvd2dyaWQ9ImZhbHNlIj4mI3hhOwk8L3NvZGlwb2RpOm5hbWVkdmlldz4mI3hhOyYjeGE7PHBhdGggaWQ9InBhdGg3Njg0NSIgaW5rc2NhcGU6Y29ubmVjdG9yLWN1cnZhdHVyZT0iMCIgc3R5bGU9ImZpbGw6IzNlM2UzZSIgZD0ibSAwLDkuNjggdiA1MS42NCBjIDAsNS40IDExLjk1LDkuNjcgMjYuODksOS42NyBWIDkuNjggWiIvPiYjeGE7JiN4YTs8cGF0aCBpZD0icGF0aDc2ODUzIiBpbmtzY2FwZTpjb25uZWN0b3ItY3VydmF0dXJlPSIwIiBzdHlsZT0iZmlsbDojYTBhMWEyIiBkPSJtIDI2LjQ2LDcxLjEzIGggMC40MyBjIDE0Ljc5LDAgMjYuODgsLTQuNDEgMjYuODgsLTkuNjcgViA5LjY3IEggMjYuNDYgWiIvPiYjeGE7JiN4YTs8cGF0aCBpZD0icGF0aDc2ODYxIiBpbmtzY2FwZTpjb25uZWN0b3ItY3VydmF0dXJlPSIwIiBzdHlsZT0iZmlsbDojZmZmZmZmIiBkPSJtIDUzLjc4LDkuNjggYyAwLDUuNCAtMTEuOTUsOS42NyAtMjYuODksOS42NyBDIDExLjk1LDE5LjM1IDAsMTUuMDggMCw5LjY4IDAsNC40MSAxMi4wOSwwIDI2Ljg5LDAgNDEuNjgsMCA1My43OCw0LjQxIDUzLjc4LDkuNjggWiIvPiYjeGE7JiN4YTs8cGF0aCBpZD0icGF0aDc2ODY5IiBpbmtzY2FwZTpjb25uZWN0b3ItY3VydmF0dXJlPSIwIiBzdHlsZT0iZmlsbDojN2ZiYTAwIiBkPSJtIDQ4LjIzLDkuMTEgYyAwLDMuNTYgLTkuNTMsNi40IC0yMS4zNCw2LjQgLTExLjgxLDAgLTIxLjM0LC0yLjg0IC0yMS4zNCwtNi40IDAsLTMuNTYgOS41MywtNi40IDIxLjM0LC02LjQgMTEuODEsMCAyMS4zNCwyLjg0IDIxLjM0LDYuNCB6Ii8+JiN4YTsmI3hhOzxwYXRoIGlkPSJwYXRoNzY4NzciIGlua3NjYXBlOmNvbm5lY3Rvci1jdXJ2YXR1cmU9IjAiIHN0eWxlPSJmaWxsOiNiOGQ0MzIiIGQ9Im0gNDMuODIsMTMuMDkgYyAyLjg0LC0xLjE0IDQuNDEsLTIuNDIgNC40MSwtMy45OCAwLC0zLjU2IC05LjUzLC02LjQgLTIxLjM0LC02LjQgLTExLjgxLDAgLTIxLjM0LDIuODQgLTIxLjM0LDYuNCAwLDEuNDIgMS43MSwyLjg0IDQuNDEsMy45OCAzLjg0LC0xLjU2IDkuOTYsLTIuNTYgMTYuOTMsLTIuNTYgNi44MywwIDEyLjk1LDEgMTYuOTMsMi41NiB6Ii8+JiN4YTsmI3hhOzxwYXRoIGlkPSJwYXRoNzY4ODgiIGlua3NjYXBlOmNvbm5lY3Rvci1jdXJ2YXR1cmU9IjAiIHN0eWxlPSJmaWxsOiMzOTk5YzYiIGQ9Ik0gMjYuNDYsNzEuMTMgViA0NS41MiBjIC0zLjk4LDAgLTcuNCwtMi4xMyAtOS4zOSwtNS4yNiAtMS45OSwzLjEzIC01LjI2LDUuMjYgLTkuMjUsNS4yNiAtMy4xMywwIC01LjgzLC0xLjI4IC03LjgyLC0zLjQxIHYgMTkuMzUgYyAwLDUuMjYgMTEuODEsOS41MyAyNi40Niw5LjY3IHoiLz4mI3hhOzxnIGlkPSJzaGFkb3c1MTA2LTM1IiB0cmFuc2Zvcm09InRyYW5zbGF0ZSgtNTIuNzY2OCwtMjIuNTAzNzU0KSI+JiN4YTs8L2c+JiN4YTsmI3hhOyYjeGE7JiN4YTs8cGF0aCBpZD0icGF0aDc2OTA4IiBpbmtzY2FwZTpjb25uZWN0b3ItY3VydmF0dXJlPSIwIiBzdHlsZT0iZmlsbDojNTliNGQ5IiBkPSJtIDQ1LjUzLDQ1LjUyIGMgLTMuOTgsMCAtNy41NCwtMi4xMyAtOS41MywtNS4yNiAtMS44NSwzLjEzIC01LjI3LDUuMTIgLTkuMjUsNS4yNiB2IDI1LjYxIGMgMTQuOCwwIDI2Ljg5LC00LjQxIDI2Ljg5LC05LjY3IFYgNDEuOTcgYyAtMS45OSwyLjEzIC00Ljg0LDMuNTUgLTguMTEsMy41NSB6Ii8+JiN4YTsmI3hhOyYjeGE7PC9zdmc+;fontSize=22;" vertex="1" parent="1">
          <mxGeometry x="770" y="240" width="60" height="78.14" as="geometry" />
        </mxCell>
        <mxCell id="BnGcvVGwKc2fh8Fx1BBk-19" value="" style="endArrow=classic;startArrow=classic;html=1;rounded=0;exitX=0.409;exitY=0.089;exitDx=0;exitDy=0;exitPerimeter=0;" edge="1" parent="1">
          <mxGeometry width="50" height="50" relative="1" as="geometry">
            <mxPoint x="593.2274999999997" y="400.00000000000006" as="sourcePoint" />
            <mxPoint x="593.8" y="275.55" as="targetPoint" />
            <Array as="points" />
          </mxGeometry>
        </mxCell>
        <mxCell id="BnGcvVGwKc2fh8Fx1BBk-20" value="" style="endArrow=classic;startArrow=classic;html=1;rounded=0;exitX=0.409;exitY=0.089;exitDx=0;exitDy=0;exitPerimeter=0;" edge="1" parent="1">
          <mxGeometry width="50" height="50" relative="1" as="geometry">
            <mxPoint x="719.9974999999997" y="400.00000000000006" as="sourcePoint" />
            <mxPoint x="720.5699999999999" y="275.55" as="targetPoint" />
            <Array as="points" />
          </mxGeometry>
        </mxCell>
        <mxCell id="BnGcvVGwKc2fh8Fx1BBk-21" value="Databricks&lt;br&gt;Spark" style="aspect=fixed;html=1;perimeter=none;align=center;shadow=0;dashed=0;image;fontSize=12;image=img/lib/mscae/Databricks.svg;" vertex="1" parent="1">
          <mxGeometry x="697" y="401" width="47.5" height="50" as="geometry" />
        </mxCell>
        <mxCell id="BnGcvVGwKc2fh8Fx1BBk-22" value="Lakehouse (ADLS)" style="text;html=1;align=center;verticalAlign=middle;resizable=0;points=[];autosize=1;strokeColor=none;fillColor=none;fontSize=22;" vertex="1" parent="1">
          <mxGeometry x="549.5" y="180" width="210" height="40" as="geometry" />
        </mxCell>
        <mxCell id="BnGcvVGwKc2fh8Fx1BBk-28" style="edgeStyle=orthogonalEdgeStyle;rounded=0;orthogonalLoop=1;jettySize=auto;html=1;entryX=0.245;entryY=0.704;entryDx=0;entryDy=0;entryPerimeter=0;" edge="1" parent="1">
          <mxGeometry relative="1" as="geometry">
            <mxPoint x="1060" y="290" as="sourcePoint" />
            <mxPoint x="1111.5149999999999" y="409.20000000000005" as="targetPoint" />
            <Array as="points">
              <mxPoint x="1112" y="290" />
            </Array>
          </mxGeometry>
        </mxCell>
        <mxCell id="BnGcvVGwKc2fh8Fx1BBk-29" value="Power BI" style="image;aspect=fixed;html=1;points=[];align=center;fontSize=12;image=img/lib/azure2/power_platform/PowerBI.svg;" vertex="1" parent="1">
          <mxGeometry x="1060" y="400" width="91" height="121.33" as="geometry" />
        </mxCell>
        <mxCell id="BnGcvVGwKc2fh8Fx1BBk-38" value="" style="edgeStyle=orthogonalEdgeStyle;rounded=0;orthogonalLoop=1;jettySize=auto;html=1;" edge="1" parent="1" source="BnGcvVGwKc2fh8Fx1BBk-37" target="BnGcvVGwKc2fh8Fx1BBk-29">
          <mxGeometry relative="1" as="geometry" />
        </mxCell>
        <mxCell id="BnGcvVGwKc2fh8Fx1BBk-37" value="Delta Table" style="shape=image;imageAspect=0;aspect=fixed;verticalLabelPosition=bottom;verticalAlign=top;image=data:image/png,iVBORw0KGgoAAAANSUhEUgAAAQ0AAADYCAYAAADxlrYgAAAAAXNSR0IArs4c6QAAIABJREFUeF7svQecJWWVNv5UvRVv7DTTExjyIIiLovjhmv6s7hpZXUXGtCuLCEMWUAQjAqISBBxgYABlVRQ/VBTxgw3qsiqLKEEFyXGY3PmmylX/3zlv1e3bzeTY3VOXXzMzfevWrTr11lMnPOc5CvJXboHcArkFtsACyhZsm2+aWyC3QG4B5KCRL4LcArkFtsgCOWhskbnyjXML5BbIQSNfA7kFcgtskQVy0Ngic+Ub5xbILZCDRr4GcgvkFtgiC+SgsUXmyjfOLZBbIAeNfA3kFsgtsEUWyEFji8yVb5xbILdADhr5GsgtkFtgiyyQg8YWmWv32/idl/zbfjUt6oYhnNj1ooraXPcfZ501vPtZIj/jzAI5aORrYb0WeOPXlnaPGsW3uUbhuFqSLEwKFnzfaRih+2iXiP/v/ALuvPvYY93cfLufBXLQ2P2u+SbP+G8vv9Ue0MKzh1T9I1Z1j5fFVgFDTgO6pULELrpE9ETw/AvfWPvpj98IRUk2ucN8gxllgRw0ZtTl3D4n86prv/+vtWr/V1c0MbdS3gOhaiHWVDheA0YRaK1bgQW6eGh+c+jMe09e9D/b51vzvUwXC+SgMV2u1E46ziOuu+WwtcXeqwf00uGuKCGJbASRCj9OADWBbsYo6wm05ih6aqsvnz/0wiW/+vwZa3fS4eVfMwUskIPGFLgIU+UQ3rnkTvNRgc+0Kt3nNxWhwLLghjFUYUJRTSRJgiT0ICL6qaPgN57pCd3PPHXi+2+bKueQH8eOt0AOGjvextPmGw697q63Lhelq/xK9SDDtjA0NgLV1JEIHQoMKLECNYkhkgBImlDDFsqJescerdqpDyx+z/Jpc6L5gW6TBXLQ2CbzzZwPv2nJrbNWisJ1bt+C9w9FCfw4Ql9/H4ZrI4ghgEQHoEJXAA0hkqQJJXRhRrHT02qc1xWvuPKBxYuDmWOR/Ew2ZIEcNPK1wRZ44/U//5eB0qyLVkT6AqXahVarhbhZg+gqI1EUxIkOJRHQkECoCaA4UGIPqhOgJ4l/39dsnPbQie++PzfnzLdADhoz/xpv8gzfd8NtBz2ZWFesEoW3u8UeOF4Iu7uMIPAQJiFUVQUUE0mUUC4UihpDUX2oCCH8CMVECZTRscsX6q2L7jnuvfVNfmG+wbS2QA4a0/rybZ+DP+jS7509Wp39BafSV/Ft8jJcCFODqStoeS0IIZDAYNBAFAMaVVJC9jrMRENQa6Kk6493j6755NOnvOs/t89R5XuZqhbIQWOqXpmddFyvu/SWw1fa1tJasffV2pz5GBprAZYN+B5MQ4Uf+expJIlAEitQYiBRgUQLgDiG5qkoaSa8Zg39ivuD+WuePPuec45btZMOP/+aXWCBHDR2gdGnyle+c8nNlRdF5Yu1rt7TGnbVHG65gFEGDAM6JTsjD4qaIKJSayK4eqJABYSCSIRAGEELNVR0C05jGFbQXDE3ap579Mr7bjn//PPjqXKe+XFsXwvkoLF97Tmt9vbKq2754BpRvbBhVxc6dhGxbgGqDhAxPPSAJIRp6oiTEHGkQmXxehVREiMWERQhYAQCahDApI85dVSQ3D23WTvjDye+48/Tyhj5wW62BXLQ2GxTzawN3/btny34U8u/Gt0L3tPSinB0E5GmAbECxAnU0GfQ0AyBOKaYJIECASVRESkRIqFAUVWYoQoNEZrOKGxNQwF6s7dV//q+jfqld53+Lm9mWS0/G7JADhq74To477zz1O/NftmJteqcr4VateIKG55QkagKJywobyGSGAoiJErMTFAGDYWCE0qKgkGDch1aDLhOHaqhoLtSxdDz6zBfUf+0oDl04u/PePd9u6F5Z/wp56Ax4y/xS0/w/1z348Oe042lYXXOa91Qh6doiAWVVVV+jhA46FRaVRQETOSKZKmVg5Nx0KD3o1YL5XIRdbcBRAmMxMRc3YS6cvmNs4fXfOq+8/+5thuaeEafcg4aM/ryvvTkXn7erUZzjvZ1pzr7EyOJKGtWCRE0+AJAooAa3eVPAspkJkJ2vhN9XKGwhf6pKggZYAA9jhFFEaI4gFXpBpoBdMdBsG7NkwcVlVMeOvkdv9zNTDzjTzcHjRl/iSee4GHX/+zvnwzUK5Oe/oPrQQKjUEJCyU2hIFaor4TKqwkDRES+hSZBAlEEkZK7MtCgLcwQiIIQKBQhdB1erYaKbaEQRkhWPfv9/d36Z+4558N5CXYGrbMcNGbQxdzUqRxx2bK+lVb/ldre+39opZsIXxjwPYdBIVYVKII8DJW9iVhREVMuQ+NfAuRphAQqMWjDkFiicYhCqMDQTDgh4MUx9IqBwGuinMTQhoYG9vCCLzw8+L83Ii/BburyTJv3c9CYNpdq2w/01Tf8+J9XesbFcfeceQ29gNAwEQVU4IhlElRN2qBBXgYHJgQOFLpQrBKHEIQZiiJBIwphhxHiIIJqlBEJAV8NIHQFUW0Ms00LwcrV9+1nhJ+4/6QjH9n2M8j3MBUskIPGVLgKO+EYXnv9zw9eadjXlXrmvfG5gREk5S7ohSIcrzX+7UrMoCFzGLL6ypWT9EVgQT/0m4QxJoQeerytT6Ry4niomqyqqICRRDC9llOsrbt4br1+yb1nLXJ2wqnmX7GDLZCDxg428FTY/dG33iruW2d8ye+bd7aranYzAoRZ4JxFyGXVNAJhLoZ8ifRvzNEgkCBPhP6k+ooi/06f1pKAOKIIoHALvYAOheIcBp4QImhBDA/8ZaGunvrg8e/47VSwR34M22aBHDS2zX7T4tOvv+72N4/oXVcNaeYho7YJX1FQtspwmy3Epsa5i8kLgaskBBKpp0FeR4fLwcDBMEE5DiSIqB8lJf4Qz4PcFJUSp1GALkTochq3VOtrzrzvjI/k0oDTYtVs+CBz0JjmF3BTh3/ETT/tWh0XLvO16nE1zYBTKaHVaMDQLfYmAiVBRJ7GpB1R9YS9idSriGSGY/x3RPSiUCWmcCVCrIaAEkEhZa9YhSAUiRToigrV91BJ/BcXiPAL9370Td/d1DHn709tC+SgMbWvzzYf3aHf+q+j1hrFq2oR5rpCh1qqypxm4MjuVaicu8gAgjyMyXmMyR5HltugKkoSa4gRASqNQAkANYAWqdAjDUqkQagWvFYLhhqhEtV+1zO66pRHzvjIX7b5xPId7DIL5KCxy0y/47/4rUt/se9yu7p0tWq8XamU4NPDP9AQOg6Mog5VCLjEsUg9CqaJTwpLMk+jM0zJfgeFFDUspppDoYQqAYcPEQFaZEDEOhDbcHwP1e4S4tqaeF40fMk+Y099+a7TT8/7Unb8Etgh35CDxg4x6xTYaZIoC6+969Sa3f3lpl3oaSpEB49hFfvgui4sQyCKAgQkqqNwK5rMU6ThSAYSnV5H51lRYjRhSrkpf622AMUDFB8q9a6EOtTQgFBKLBcYaDHCxjr0hqN/3T9pnHbfcUf99xSwUn4IW2GBHDS2wmjT4SOHXP3zV6+1K9/2zNIrPU0gKRgMFopWhKHp8EaHYFbK8MjTSEGDZf0mvYgi3vYsOt7jciwLDhuypkLyf2rAuQ3yVtSA3BoDCKkMqyMk/Y2oiQP6rFhZ/uT1s9a9+Lnfffbkkelgy/wYJ1ogB40ZuCKOvvxW+/7C7PMb3d1numqkuUoM6lmlHESsGBO6VsnD4HkmaRerook2SFC5NQONzAvJch60fcS1Wp1Bh/RCQd6MEkmLxqrMaZAgsdBYAUwXIQxvDF1O7em5Tuvc+097309moPln/CnloDEDL/Grr/qvt68pdX91RNdejUKMAD6SmOBBR6xSiZVZW/Jmp5AklqBBIQd5G50hyiZBg7ZPWMyLaaNUiaHd8/8SRXocHL4ksE0VcXMYvcRAX7Hyhy8va+f8Mp+XMu1WYA4a0+6SbfyAaX7Jc/ac70bV/neMRQES05Xt7SloKNxToiCi3IXCfgYDSNvT4N+Pex+d3ya5GROrK6S/QbBAql6EE+TRcDWG+R0qczWIz6GqCgqGQH14HSqaQI+qDVrDq644eLZ78Y8WLUrdkxl2MWbo6eSgMcMu7Cuv//dFK63e61rC6jYqRThBDVHis8YngQTd4iFDxUTQIDN0sj0z4R0CkAnAMcleWbWFAIISnvyTAgZBiKYKII4QOi3Ytk58USS+h4Kqo+iO/qZaW/eph077QD4vZRqtwxw0ptHF2tShHrHsxwc+GxW+MmiUj9L7+jHmNKFbmpTro8c/3dAq6WRkMURK0CJPY33IQDc/JUc7+k+yDWnhsOcRR7JHhfwN0thId6TIGIX/U6ntPgpYiLhq20j8EK1mE5rbGJ5nBDf2j9a+nPelbOrqTp33c9CYOtdi244kSZSXX/eL89ap5idbpt2F7i60AhrebCEmdmdMA47k5Pe2F9HuMGnf6+PU0AwoJnkanaAhUxUxU8il6pd0VzjHQbKiJMOR0sw120bkuYAfwxCkRZqgSE7I6OoHFiTRuQ+fkIv1bNsC2HmfzkFj59l6h37T66698w0visI1raJ4ZWxbdG/Co8SnqKTtqinNmweXEClcJkJ5iEnqNTCYZCti8srIXJEJLoncnJ0KQgl6UTMczVNi50ZFrAtEvi89FkODEZEGaQTf92EpCooJXLs2cNucsH7uH0/5pxd3qJHynW8XC+SgsV3MuGt3cvQ1t5YeM2ZdMWAWPhGWNHCJNQIcH4A1K72rQ6Z4U28Ig0ZaYpXOwcSKSRs4WLFLkr/ar07QSPfBoEGMLgIiAg2qmlB+lfInSQS9UkHQbLALoguD3/M8DyaVd1s+utVorOQOnvvUx9++DAr5KflrKlsgB42pfHU289hecf2/LxpI9Eu9YnFPXxPwhcZDjTTdhh+rUraP7ubUy+CmsiTmige9l/We8M2fvcgDkWmJCa/1LZj2JmmLPX1ggh4HC/zQJ8n9kNUa9m6oCJwo0HwfFSW4b4/m6Cfu/8Tbc7Gezbzuu2qzHDR2leW30/ceetXt84ars5aFpnnkoOvCqHRBMS3UhscgLBuJQlUNmZLkZAPduEkMPYo5kUlJUf5tuhLawJGGLZMPM1swWdVkQst8J+Zkf6ckLHkqLGdOqJKGMSkLNXJ8lG0bYa3m94wMnb9wyL7k7vP/TjbE5K8paYEcNKbkZdnMg0oSZf9rbj/Zqc79yqDb6jK6qogMk8Vw3JYL3S4iimIJCAwY46DBc03SEIJyD20HYxNf/dIFk01ffCkFnXaVdICGJI1JsMp+iFVqRoDd8lBxmo/0NVed9MAZi363mRbIN9sFFshBYxcYfXt95Wuv+clr12iVq5pW5XBHjWF2d2F0dAywC7DMAlxKalBYwKCRjcaiEIEwJG4LCHcez6YSClsKGlk+hDQ35EuCBocn5OkQ5jgeZosiTLeZGM7gjfOC2ud/e/qige1lp3w/29cCOWhsX3vutL29ZtmywqpgzgV1tXCW2tWnJLYBJ4kQhgFgWFATFXFEeYwUNDodgdThaF98GlsweSVkYcQGXJDxzTfuaciJ81TmnUz6lJ9TdANqEKHs60haNahxc+V83Tvn4X99+/d3mjHzL9oiC+SgsUXmmjobH7D0p+8cNLu/WZq9YOFgqwWPpruTWniJQpIIcENopokwIGGcDm8jO4W02JEJCe8o0GhjTgoa5F2w/qgSy2n0lA6NFBQiDQh8FMoarObQ3eUVj5/66Lkn/HXqWDw/kswCOWhMw7XwD1fdMu+xQt+V60TxaM0sgSqratGCz+MIaFaJDp2moPmBJHJxaELJyNTdiMeJWJt/+plHMekTqUcyXiidmNvoVAKTeYxEygQmkeyBgYJKsYT6WAO2TqSvCLo32ugJRq54hb/y63csXtwhl775R5tvueMskIPGjrPtDtvz3yy749TVhb4v1fXiLEU1AF3AJZo2eRS6wnRtqpBoCeUM5M0eUxsqgwfRMLmcsoWvrQONrPU+y2GoKboQaCR0fIngMKpYLaA5OgpFFajqAnpj4C97tEZOe+jEo36zhQeab76DLZCDxg428Pbe/euuue2gJ2LrZm3enq92hYkgklRtEgjmdlMao0h/DUMoUcwt6xR6cJMaX+2UAZp6G5PDkgnKXeyldKBLZw+KRAFJTWf+RbsYO+GUNSr5pl20/O0d+yNR4jhWIHSBIGnBLFnwWwEUP0DBcUZn+2PffqU/+NWfnnrM0Pa2Y76/rbdADhpbb7ud/snXLFumN5L9v1Tr7T970HHMUDega6TRCYTUK8bAQX0mCYMGlTsNGrlI1C4hJF8jvblpZit7IBkNvEN5nH4v+1PSROqk99rv03AlJW2rb/M6xtmltF2nyI/EmfFxCfJY6LgSRKIFxRBQSKi46cGOgKpbf67fGTj9z6ce/Yudbuz8CzdogRw0ptHieMUVPz1ildV3ldLX/woHATRDR6vpI1FVRDqNT0xJVHECjZKhScJ9IByNqIpsLKObO/09q28RR4Mjl5Q7kbK2KKzJ9EH5Ru/gVtDv44zzkY46yDyYLAxpezSTtDnGxYtp/wqEoiMg3Q+dRIlDGEYRft1DUbFhunX0ovGrvtaKY+496ZiV0+hSzehDzUFjmlzeN3zr9vITjrjYXnDwCaMhRH10HYyCxToZiVCR6AKJRqVTSdUWIcvhSNp2OiEta2Gni07iOPQKOVwgQvlE0GhLAMYRA06n6DDPfk1HNk5OgI4DjZyyxmMcO8KTcVCJocS0X4E4DhErNIgaMFQLoRvBFDZE6KOsOE51ZNWZj5/0T8umyaWa8YeZg8Y0ucQHXXfbPzzmimvQs8dC1Sqhy7bgUhMYAYKmItZUkLIeewCU/AxjOeEsrZhQIpRhgue1Un9ZCiaT5p5k4xhlolKGEtnn+Ls6iFmSUjq+hCQ4SJAgMOD8yAZAg8he/HHyNgR1wrYgTB3wiM+hQRUGNPpidxTm8OpfHRjXTvv9mR97bJpcrhl9mDloTIPL+44rbtn7Ac26Ktln4ZGDhAx+jJKwEJG6uIg5nxEJhfMWXEGhfESkQHC7R+pRECMi7f2QDWvyxKkTVTa0Sa8g6ykhL2V8fEGHZ8H9KuPyGWo6t5X3RWELtbZ0gEa7o37SIOk2QzSOoWk6Qs+HZZrwHF+CiKqBkqhq4KPkjQ31OOuunW+OXnT3scdSHJO/dqEFctDYhcbf3K9+1eU/PHl5sfrVVt/sqitUwKrCGPbRWyyi1hxBoEYIaJoASetpmuRk0GjE9Aam74kzlXCmcScMGqzrmYJGewxjB81bgsZ4qZUTrekrK5YQaGShC+VBMtBg/dGOlvpJ2mDZXrj7VlBXrqtCUwQNeERIxyAobEm4C1Y4NWi15X860ErOvP/4o+/eXLvl2+0YC+SgsWPsut32+uYlPz70eWFcX6/2HeZWynBionLpsHwTUdNFscuCm5DeeDqmgFvQKU6RVRR6arcTl2k1hECDmuf5pk40mXOAJIIRQ5R+WL6Pm1So4VTK/hGXU8oG0o1NQj4xhKpNUC/nBCp5LhQW0bHQ9tlc2NQqMtyRoRLpcFBuw/ANBhzV0uD5LlRDR+z50DQDJiIYcT02h174/sKg8anfnv7xvC9lu62wLd9RDhpbbrOd9on3XHx7+aEiPuPNmveF0C5iNAwRJwEgdGiBQOj70CyTxwZweJD1i2ShAIFGp15GyuiipCflOgSBAGnziBixcJgIpvgalMRCJHQGDRUOoiSCZpfh+xHM2OLJbKFGics0d8FeS0oioxJvu6OWkhYENDSmkUBHvghHInKDWN+D/lChRfR9KkI1Zh1TKX0cM2ZRKKOaQDyyZu0eUe0zy5c/cjPOP38DbLOddnl22y/KQWMKX/rXXnfXW5+Edo3f3fMyakLzqcoQR1A1nRvSeKQiUa/pKraf5jIXQXkL+lNLE6HUgp6phGcJSqFQ3kAgDFsIkwaEQiFCSQ51Tii8oESqC89zALMITdgImxEs24SX1PlmVhTyWUiti8dKI6bSLs927ZAT5NmuajuPInMwKWjQUKWEQilZbaH3JKEslDWdIIIqdARKANtUUG4N/X7PevOj9x935LNT+NLN6EPLQWOKXt43LfvJ3OdC7VuNYs87fauERAiaXsIhAYn4hqwSrgCU/EyVsvjJnQ4+4jpKMl494REDaXWDmZw08Z1p5xrguEDQgkkJSZ2EiAEzBIQaw408WAWb+SCaYSKiSk0QwDQNeK4LlUAjiVhgmJOuDBpAxBnVlK7OnoQcqkTHOO5psOAGexoipmHSlMxNQSMJOSdjJAbCMESgKdBpIn1rEPOc2hfNlcElj56/iGK1/LWTLZCDxk42+OZ+3SuW/vjEke7Z57dgzfZUM2Vpj3MrQkp6qoJ7NRg0smrH5oAG5xTSSgvnPyLoMQ00UuGxLmgAPYlhCwW1xhgQhC+owlJUIXrjklmMaeq83QXfDzlhSd9NGEHjoDn8EAp7DHJUAiv9QLBHwe8yySwhTVH2kKRjoSaaZKfy5CUCv5g/I3wFpmay7qmmJ/Brq7Bf0fjf4uoXP/vQqR/M+1I2d0Ftx+1y0NiOxtxeu3rztbccusKsLlsN47VasRdeSoegUINyFETIcsnD0AUU4mLwvZjyLtJ8RkaoyngatNV4CVXWTJnQ5VPBRWPAoElsUUKq5TT5PYKIXJQU9fex795esQqjYZTsv3po6EP9+xwwv9Zw4HghhCWnxjNosLKf1APlEISnuaWph6yNRZFc0nYiNP09638QxkgMbHsgupMw4UuxDHiRA6F6CMbWoC9sXr1PY+i8e8/6xPD2snu+n82zQA4am2ennbbVO5csMZ+z9vjKGtiftubshYYXgRveKQQQxL2gyoWCgDwCoY3zKjLeRQdoZAfNrMzJoKEKfqAblFflnIECn5OsIYSIkfhNqPXaX+ciumiPUvVn9x79t+7Lvv3vB/ilruOfG6qdWp01x0x0Aw1ijJI4cDwOGhT6SNCggmpHvjL1NPi4spWXdu63hYg5PEkTpJGKQmAg8iPWO202h1HoKwJhE8IZXrm31zr14WP/8Wc77eLkXzTh0uXmmCIWOPiq7799oNp3XWR07d0MNUCnSgb1jZAHkLAHQOMJ5AhE0ZbIGD982YiWeRUZYZPLpVw8Te9WEsOhmz2IiX+JKBEIlQixHoB8Ds1pDVZGR75zSL114S/PXTSW7f/QW3532DOt6OuuGr8VhaLMgSgqRCSJYRrR2qn2QbkNJClNPUtujqubtykfqkzQEhjKHhmqu2Zypio0F6hQ5YaTvgoaY2uhdxUggiaqjaE7DxoeO+XuMz/8/BS5fLvFYeSexhS6zO9ccvMeDxcrlztd/Uc7gQFFs+G4PlEpkBipH58+mTUZ/FOGoP0sl2SqSaDRMRRJehyS2k0vnW5Wz4egmEDQRHkFPlpA4KAQeH9Y0Bo78dGT3vvQBBOdd56614I3fmgkCS+Iq137ebqNgEIdYqDGNCmWevMl05S7bzNSWQcxjOkZvJEidT44jUEeSZhWVfg3nODQWdErQeB5sCtFuPBRLBloDK9DOXJqC1q1Cw5eEVz1ozwputNWcg4aO83Um/6iA5f9cPGA6LpQn7v3rLV1n2eemqUShyY+ERZ4IJHUsTBDwU92ngjP09qzt1KPIuNuUCtH2qGaKYMT4Yue6noUwWi5KFo2amEIn0YlmhpUrzGI2rpvvmp16evrGyfwhm/dPm+Fh2/Uy90fGjE0JGYROoU4TR+qakJNCV8h5TNoDCQf2kReBjFSuVqiEMiQfjqR2UMu1zIeskI65XB0JqJRzob5IQkFa7SvCIUoRLXVfGjfxD39nuPekyuYb3qJbZctctDYLmbc9p0ccePt+z+m4kalPP//G3QThIYNo1KG32ims0KIIUWECEmW0sOEG9IiIkNtDDS4k1Re5ixkyZKjIg5QEeTyj0KrVPkmDUYb6Iqcf58VDnzqrycuenRDZ/aK6277h5WJeZXf2/My37IR0BzICNDtKgIv5OqHWSjAD1yp85GpkbdnvTLvXZaOWVUjYNAgghqT1bhlX+XGO/qTCrLEC0nS0i4lhGlYQxGIisOrr9wnbl34y8XjYdS2X5F8DxuyQA4aU2BtHHHeTdbA3r1fHi31fqoeWFqL4pFSEfykjojGLRODdH/F9D/KbURE4KLkRiqmk3kWHSMWGSh48HNHyKLI0qpEkRCxW4NRNGFqNtyRBlBznt038s964tR33L4x07ztu/9R/FMz/FLN1E7xLbsorCKEUYTryQ5bYdjSv6BqTHrDy/OQzFAmc20ANKQwUDaFXqIMs+OJu0E2Ib0QCJYzDDwf5bC5ckFSO/3BY9972xS4nDP+EHLQmAKX+PBv/uTvnLnzljzvha9oJjYKPX1o+R6i0AcKhpz4HsgeDco7MH2bA5JOmb0UBzI5v8y7aI8xkD0jbTEdLuNGSPQQyegwLKsMZazpd0fxdXvVh8+/96xFmyxlvubb/3H4KuBy9PS8fsQL4AYKYFegGhZi12OOhkqeERG62nNPCANUZrRSfZVFgLhJjhKwEmDk1DdiuhJwpMJCCOQoSWLEUnk5ovBMttUb8FFw1/5kj8bYp39/Up4U3dFLOgeNHW3hTez/75fdWl1t9n5tbSM+LihXDa/UBZfAIvRhlAvwuRZJPSE0bV0qcLG7L9LZrJHCNyE7Dvz/1ItolzTTeSOZ+lZa9sxEvKKwBV0V6I5V6MPDD/c064sfPvP9926OWY6+9VbxxFj5lKdbzuesOXP6RXcfhhrUOidgGharoSvsaRBkROMapWlTnKy7psJBStAOYRQu+VD2l5rt0qwpgQp5SUwEU6HGQp53FMP3a+gpJYPdztjnnvznd92wOceeb7P1FshBY+ttt10+eeB1P/7HF3zrsnJx9gGBYaFpmQg1BSr1mSQ+dbinEn06d5lyBYSShcTKoqd3TL/vFBefBBpS6UZqc3LLvOxOzVrhSQm82zIRrF47uiAOv97l1pbce9YiZ3NP7oiAXlDeAAAgAElEQVQb7tzjuTi5Er2zjlpeayIxbGhdvcytSGp16KUid8qSr8El1bSzNs12pizRBInwObkpYxoBERsMGtw1S56V6kNRCTQ4SwqF3ictVGKzihiaEQIDa+7ey22d+udTP5DPS9ncC7gV2+WgsRVG214f+acly/Z7pGvvK1Yr1X8sm93Q7RJWjgxBsQ3EGpGsgMSjJzC58TqNI0vLpZK1ycK/CXWHrsfDyA6SQUeGM8wBpXkjRPSIJWNDT3RE9QbKoX/ny3X1tN8d96YtbgR79bd+9b41SXKhX6ke7BXKaFFnKnFAyPdJczIcoHC7TOZFyN4Z2Y8SIRE0gkHmbhg0QhNqLNvuGSRVD7FKgJd6JzHNSFFQ0hR4zRpsS0fUGPGK7uhVLzdHvpiL9WyvVfrS/eSgseNsu8k9v+GaW858pjL3a2NWt0lafUzA0jQEagytqMGpj8LWbW4g8zjsoBstJUqRO8+eQ8bNSMccTgpTpEYnhTIhJ0C5bT2MiPgJg3ICRENv1FfvoeIzjx7/5ps3edDr2eCdS+6sPFVQv7HOsI5Jit16kzCJmtQsHUpEHpEUIpYapenxpmCn8JiEuAM0uAUWItIZNDjsYtAI2OOgjCiR2qgTl/8ZeTA1apcJIOCjy8Yj9urnT336hEX/szXnkn9m0xbIQWPTNtohW7zu6p+/ek2x66Yhq3hIk9S4UpFdrnSwJgV1qVL3qAw3MtXw9pAjmeDoyGGE3A4vZfxIRCdtAIsi6AUNQUT8Bmpd1QAvRDkpwwpjBMGYX26O3nKA557zqzPeu3ZrT/aQm37+ujVm9XIvsf+WkqHNKEFItHRmslKXiwQADkGoTZ/DD6LCp+pgnbNjO3IemWYpgx3ZJM7mt2Sl5AhJ6KJYtNBsDKGrZEFbu/r6fRz3vD+esmjN1p5P/rkNWyAHjV2wOmh+yVi074VrzMo5UcVGkA5J5inqk67IZDr4hMNl0KDqhNSfIOI2N43RTQmDY3+eKRK4gK1AsXUkTReKoqPoGNA9B35z5aN7wjvpsVO3bZIZJUXvHdK/6Fi9Z9ZhVKyeHtTcppz4xkiXggYLCqegQZ4Td7umYcmEk0uHOo0rDKbvSgPJxjg6fRUxqZmFLSCmCkyMSuQ+N991vvDXY//xB7vg8s74r8xBYxdc4jffcOdbXoB9TaNUOdDRDQkaTESQBKzObtSNgkYWsvAnpafBfka7pEmzUASlCBARkzL0uErbU6ygMdKA4dadvqhx5dxW88ItSX5uyGRvXvazv3nB6vrqgGIeGWsGjFIRTT+Q81Yoacv4QYxVOXsldT02sLs0oZuJC3XojbbHKVB/C/M2fNiGBqcxBiUKMcvWYTTr9/Y0Ro79y8mLntgFl3hGf2UOGjv58r7+0u/OHu2bt7Qm7KP8QgFj3H+ht0FDivOm+YlOYd71XqmMAJW2kqfzSOiUpOiNBI2gWYforqJSMOGsG+BBSqYlUA6ce+c4Q6f+/uPveXB7mWHhVT/7yGC554JA1/cLSaNPs2THK+UkyONIqJWeOCOBdEDak9kmH8E4aEycuZJCTUqN51wJKYtFPvp6uxG6DrxaDX0le6Q4OnjpnBf+99K7zz+f6r75aztZIAeN7WTIzd3Nq5bedczzUL8quirzRn0fSrHCcv3t+SQTJpuNX57JM1fl95F7L5OjCgONpJTTSwrbSAKVadpouQ7QbKDL1qF4dcRxqzY79s55avn9129Pvc13Lrm58pDR9TXPrh5fT3TdtCuslB6oflpulfob1DUjGaIUtqQAsR4jtqe7pe+ND2OiPInUSS2VSmjUhqEpCbpLFThjdXjNBmYZygNzgvqpDx7/rt9v7vXJt9u0BXLQ2LSNttsWb15yy6HL7dlX14rV18emCrNawcBog6sBnXL/nV+4yfCE7zeVBXi55zVTxKJfE2g4pMNhsGaGiAJ06RGssAHFGfzlvCg85p7j3rtqu51guqNDb7zjratF+RK/2P1qL5b9JT5pdBDDM1XZUVglhPBu46CRMd7bXLU0rMnsZaoGWrUaqrN6UBsbQdJooLt7FiLPh51EUBprL9tPrLjgnuOOq2/v89xd95eDxk668m+79LvF1b1zzx0Upc+HlYoy2GoiCTyolW7mNGSvyeAxQW1r0rHyx1LyFxNEiRbBat6pIk5CjV42iAIRexEMNYaeNGDU1z2xl9r63B+PP3qH9GoccdNN1l9r3V+oF3tOUAvlWaHQEaaapFTXkVUeSfYiQEm1xyad3XiINnGSvSSAZTIABJaGZcJpNABDoKjTlLYAeqTCbdWQJK3n5seN05894T35EOnttNZz0NhOhtzUbg6/6T/+YbkoLvF1+8Ah14Pd08N9JEEgxx9OcLs7RhluyAORT2lZPGENzlS4l7tECTT0tCTrq7AUCxb1kbZqcEdeHNy3hG/PHljzlXvO2XFP3//znV8e8FSgLfPt4hE+TYNTDTnBDYEUISZ5P+pbpWlq612F44pfnaAhe27ki39PnbWmjSCKEPs+DEODRnmhFqmX61D1BPro2v97QGPFZ39z2see29R1yt/ftAVy0Ni0jbZ5i7dd+t3ZK/r3+tpqvfjRFhLThwpVt2DaRbRa0msmfsb6En7t8KRjrGF2QG3QIPUtVWfGZxBJ0R6Y9BgPAY+EeW1EjoduPYForP3jHt7Y4vtP+sBEcZ1tPsuX7mDfG//zk4PF6rlNzZ4TBQJ2sYg4rHMvTRJR8ldFrCaIOs8tHTbNhLS2RyFnn7QrLmkSNHufuK7EjCW2q6CQJKbmNgLSmMc9GmFzqA9jXz6sElz7o0WLUq76Djjh3WSXOWjshAt9xM2/POaxyLxoRLPnB5oKYVoomCXUhoeh2sSn2LzX+kKVJA6h8NxTDVFEXksExVAR010TELnKAHwPFj2Ra4Nje6rB5z+w4g/Xnr8Thg0dfsMv+x+Oo2usvRYe1WgG8Gs1FKoWWo0mrHIfM0vkoGk5boHPLy09Z7JC2dR5yeVIy7RZVSkVMZYT5WRCWMQ+81XIIyETFGHAqQ9DCOfX85pjJz+Rl2A3b7FtZKscNLbZhBvfwT9cd8fCxxT1+06597XUl+FrGvx6kxWuaDhRYiiI0xumExTUjnJr27NYj7ehhDFMk+RoEni+x9UUXSehnpDnhSQkp+c7KKnAbLfxi71rtVN/fepRL+zg027vfp+bfvmm52JxPTT9wHJvH4IgQEwixk4MtVTmxjzqoZlcam6zONJQbYOgwU1u0tOgyEUkJOYTIRI+ix3rnoYCzYyJ3HC+6l9eWfXHL9971lmb3ZC3s+w0nb4nB40dfLUOvuHOM1o9cy5b2WoJX9WhdfciItUt15NjP2j40CQw4Nh/ktoWHeZkT4PnEcUJg4afRFx+pDkkTMIk9Swlhq+GKBFje2DN8r0C99OPnnz0j3bwKU/YPSVFH0sWfCkulT7rKAoaXgxBZWZhAK4D1bKZkPUSUlu6lwmexuQDJxtlnbGJpKXz4CaSDVSl/oZG4ZkwYROJbu3KR/eM6sf/6ZR/+t+daYOZ9l05aOzAK/rmG28/9JEWvumUu9+kVEpIDAtO0wMMA5YQPKGMJ73z4u+gR3co/Hce3gRPhKceKvyEJiGaICayVMLaGAgiHmeoaSq0ggrVGfZme/Xv7uk6Z+8KSbyDr/zha9cZ2rVRV99rQqsHtYhkywU0q4jIcTiUWG/oxc1s2SCU9Vwo7ldJmaasv5F2zjJfhTwOqb+heDHKiQnVaUZmMHLN3LH6lx7oUFjfgUtgRu46B40ddFnfueRO83HVu8jt7j9xTOjF2LSYzhTRVDKNxOoUhCxQkzVyTdLyTL2PtjRfh6fBnkjqv1OzuLzhIp7LapCr7pNGpwLdUOC4o7Dd4YcWht5Z95909N076HQ3vtskURZefvMJq/XCV0r7Hdy3ptaCVrSl9lhI9Pfxj0/WM11/OTZzQ6gKkxLaWAGMgCNd0llnr0hkyXnEx4LeHqxd+fRT+xSSTz963Dt/vktsMQO+dEtBY1GlUjmgVqt9ZQac+w49hVdec/vfrdHNq0eF8XLR1QOHxiXGgG2ZcMnDIK6CbSGWjRn86nzacpvGhFms6b9TD4O2J54DzRwh7Uxy06l+Yvo0z4T4GgxL0KJm0NUcvmRO7fGLdmUs/5Zrb53/mGdcvdYq/1Nx/h6o12rcbKYZ+oTqCQ1a6nzF66fCSilAsmEqERixt0YSgXL6POl4UG5DFRGiVhPVQi8Ux0c35XsGXvyfWa3hE/7wqQ89uUMXwQzd+RaBhmVZn3dd98KN8n5nqKG25LSOWHZH31OxemnQM/tfPaGBftwgZK0MW9fgNJvQbRsB5TV06yWAQb/YUCJUPoml202AwTcVgYYeQ4kiqE4MYkkSAzRxaigpzoOz/eFj/vKJ9z+yJeewI7Y97NqfH/WksJeEXb3zrEIJw4ODMLoqDBrEgqdTkcPmx70u/n12MJNXKxdbKIchay0EIVAz0CAvhCozLnRNQBcmWgPDmF0ooUeNAjRWf6kYLv/GA4sXkwOYv7bAAlsEGluw39160/1vuOufn/GSr1fm7TXfC2KEAghpLVMMHqXjC9OJZ1Qc3JwXkbbo1QYNUIiiIgkTDvsDpSmJXm4MTbHRlWiwGmOrq8ropbNe+MNVU6Fpi/pSHrEql6wrVj6uWX16pOrwQymuI8MQkiRUuQ+HxIOphJzJBbDDwT8puatj2mMW3vA+2ANpk84lwCpEVpcjLbWQflxoofdEf6P28UdOOTJPim7OAuzYZvNW7BbudHfe/JVX//jgtd2zbgir/X87ONqCqdvM0AyJocnT0GXCn254uiG2HDTkc5ccDhqraCUmD21uYQywGD1QECYKdQ+lsaGf7x00T7n79KNWTJVr8vIl33vTuursqx1r1iGhXkBAlRNS40oPkAGDBl1TiMW8E/mOnIXSARr0y85cSNYtm4ksjzersD6qnGpP5C85AlINQ/Q69Uv3Wj54wd3nL2pMFftMh+PIQWM7XqWjz7vV+NM+hbNXwPySb3Ybpe5ZcMda/HQM1ZTe3f6+cfm+zbkI5GlkXkYnaAR1F9WuLowFYyzpZ5oG/NEaTKf1xF5BePITJ73n19vxFLd5V+edd576oz1f/8VVVuHsllUqhrGQFaT0Zuckb8ecFpqbkiV9pVzgpNJSxvfKjmw9oCEDFypjR3LeFNHYgwAVt/nsnMHVpz9w9of/3zaf2G60g81Zr7uRObbtVA/+5nf+bqS7/4q1ifFKu3seGo4PXaH0pMzys8fB3nPqRtPXkeexOV+b3Tnt3gt6YiqoWmW0Wi24kctjDborBQw//vDQ7HLxxoXxwEVTsbvz8CW3vnxFV9c1rUrvEY1QIAZRwNOhT1QNYjHhzCg0BUWGdOxcpLKo7XCFNTk6bDgJNDKNVGaIKgl03gHlf0JYXgP9YeuWfrd+1t25NODmrELp5W72lvmGG7XAa5b9oK/V03vxM2PBx5NSLxStDMp9CiGrGdRERd6CJ1TSzU1jb6I/y5ui/aCc9C3Ze+Riy1c2z5VcbgWxHyN2ffY2gqiBVnMA80ri3q6BgTMfXfzh+6bqZTv4hp9+eKVd/IZjdM8NFZOntpK3wU1s2YCkNOlLp07sTk7+EgSzqE+6eqkktRHQkB+S+qLUT0ugQQBOoCFCF4bbHJwbNE//64nvu2Wq2mqqHVcOGtvpiiy88daPrC0ULlfMvn690IPBgVGYpS74CXV1AmYk8/uORtJ+ciK6fHRuGWgQeHCcz3E6zUdReUSyoQpE/hg8Z81Alzd64UGrn7p2KiQ/N2TeNy25ddaLVevqYa1nkSuKUBUNitC4H4UGtUklQ0IHGrg0Dho8ypHkC6lHRdalJ9pwcniSTXajuS+0H9ZDT9hz4YlugYtSbfQ/D/brJ//69A89s52Ww4zeTQ4a2+Hycn9JRbtuVaK8pasyB7VRH0ahwjeAr8ruTJ1BgxSsKDSRAjly5of8/Uv0c9Pj6vQ0ZGt5xp7kxy679YaiI3BcqF4NFaX+s33ikdPuO/6fp0zyc0MmftV133/XWqP/q3Wj+kpFN1j20Ce5AG5cE1AEVYd8thPnIahaBJWTojw/hY2TgsYk2cDx8IYYo2ktl3gvMQkbJxCqCo0GSwsF3trV/r5q8KX+F9d+8+7zj3W3w5KY0bvIQWMbLy+pcD84YJw70tv12brQiwYKCAMFdBO4vg9u/CBsCGVHtiwLUvpBqogzZJA0/waOY0OgwfNCkgSBH6K71IUWJT9btUf7k+Fznjrp/dNCcIZYs89o4edG7K5TQqvQ6xsmqD8lZkl2hanmNHZR0sEluBI3RZZnJ5ZVs5xIpxll3oNcipTJQaQPJn0Bmiq4YZCIdgUlhlYbePwA1T/p/uPft2tYs9u4Dnfmx3PQ2EZrH3bj7W9YbXdfW9f0v3EpLg8FEmIlGgYSXdDURNDoQ4TEZaYbXQ41JtEcYoXS05RnnGzgOIjkRb0ldNNQhyh1hHJZkvN5lEJUefgRxfxd9aEr93Ma59995vtGt/G0dtrH33zt7YeusarXDSvK/2nZFgKrhIDs5IYQdgFKRApfMh/EwsTc0To+nY3n2qaaqPSnINDJVN15daeeRqd4D5Vc088Q27y7XEJreC16g/q39h5d98Xfnvkvq3eaAabhF+WgsQ0XjYY3P6WVLxwpdJ0WCwORoiGmZJ6iMo07ofwF60DIJ1wmtUVJP8pHpH7GRkFDo7Zujyawx7Bsm91panmPoxA6IYfvo8uyMLpq1VN7x/Hiv57yjv/ehlPaJR995dV3nDVWLp43oIlKU7MhSlUkPvWlxNDTsYwhhXnZXFv23MiGlNtI4ZbGTBLAdkgKsLgPEcd4lXdMoKMxlQQcicphiu+4KBYsmLXh1fNqaz/zyGkf2KpJc7vEeLvgS3PQ2AajH3rtD45aXpqzpGGW5+k0nIjcXUpIkgvNrjENKo6QMBea+dEy4ccLmwRo0vzEJjwNGcFIohM9R3mmM5GiAh8FHSjFkW/Xa5cc6Ctfuev0d0nF3mn0etc1/2/OE3BvdPv63j2gGvATHaZF4whI44z0dWJE5ErxNDYpuKMElN9JSV+MCRI8CDQyPouMcuQSz4ZQSWq5TIrSEGzTkOFj4MZAcxhzktZde4WjJ96zeNHyaWTCnXqoOWhspbnfcOV39hyYNeuaNVr1SFcrQY9ocI8Cl0RvONkpwxA9lIuUhx/zkpcNWfzco/Akda83FJ6QZJ9mmtAUIPB9xGEAU9ehUWt5FKCihojWrvp1v+d+5sFPLnpgK09nl3/s8Gtu+cCLuvX10VLXfkmpD1GgkY4Q1CRBKGLEGpU+UiuRYDLNvqVKCtuVXA75HtHF5fQ1+e82IUwOeGi34WegEdMAKUVDudSNsNWA6Y3WZ7sjn31yxf3Xbs/RDrvcwNvxAHLQ2EpjvuK6nxy3XNO/FlVmzwoVi0cNkocREGhwdURwDs6k2aPpwqesP3VxSmp0BhOT4GISaYN3RZoZCqBrdCMF3E6uC4GqoWLoib+8eFDJ/OJfTjrqu20E2spz2pUfI7X2F0rWtWvtrkVKd7/ZdBVoRoE1Pkm6kICDPQ02CKCFKgNwQOHLekCDS9Np3icDDm6Ey7qH2ezMCoFp2Aw3Tm0ElprAW/n0bw+2grMeOe1j9+9Km0zV785BYyuuDI0ffM7Ulq6OtTdqVjdiVWfFrIjyDZTxp9UayonsBlVcVQWelg0yyvgZ2Rd3dF7RryZdEcrws9AOeyU0Rlk2chFzzAxaqNQHv7M3vM/dc9qHt/v8kq0wzTZ95HVX33L4kzCvcyp9rwr1EmKFPCzKD0k2LY9mYG+B7CAToqwzSl4d5TS4NDve1EcHw2MbucIt+1tkxJLpkcScVPYdaj3R0N3Xi8bYKOKRNWP9Qe2Kvtbzl/3l7LOb23RSM/DDOWhs4UXdf8kSMy4v+PqQWjxV75qttVo+904EDBoqEkH6nIBOmr4RkYiIAUqgkRKWsm5Vblqb6D7zoUy+IlEMoWltsDBUBQZVZvwAam348fne2KcfWXzkjOidOOK887S1+73x3BGj+vnhQLXMai88z2egiBTSFmViigRPSiRzw59GWZ42aFB4Is0Ys4xiVpfKZuVmIj8yeiEgUhAFHjTLROg4HKrMsg24zz7+5N5x/YyHzzzmri1cIjN+8xw0tvASH/Zvt7/hSV37tmr0HdDyYlhWAUEC+ERe5ECZPA3AiAWzDmkQEs038WmVZoOQacGSty0ZCBOy+5M55bowkFCLOAnO0MM1ChB5Dsn0x7Mi/5IDsPz8u4+dOYSkw6/78cLn4sK3k/493jhQa8EudYPVyRDQ/DgmdrGnwGGgiiSm3hVixsoL2S6lslgzIbOQYNMxDiHLI3H1JQ5gFQpo0YR7IWCZRaDRgDYyiAWKf+OskRVf/c3Zx+fzUjrukxw0tgA0jrjsB32PdVW/4vbMXuw6EXTTgkehCFdMZFSSxDJuZm3KLG+XNVllnkQamtMs0iw4IbIWl2czvQhmOKoQseB5JtTtaaiArgYwKflZH75/nlv72CPHv/+xLTiFabHpy5fc8nF3r4UXPDvmzde1MkyjgAgeiyeTBodOfI7mCGBoUCl3lFHHmfBGCdLx4VMcushht7KaJdWYpSoahTSUQFUVhKTGTJ+PqW0+QSEAiqE7YHu1Lz2/8t7tOu92WlyEjRxkDhpbcAVftfS2o1eU+742GCT79fbNwRiPAjQQE+U5k9pfj2r4Br+CaNFpSZC7OBVyw8eBQ4k1npNsaCbCOICmhDDgIhheNThPjb/y7Anv/eYWHP602fTdS7/f/WercnXQt+CDXqiLIFDghQGMYjrIWtcgCiaiwIcajquYpcmLNNEsE9AyHJGATICRlWOp3E2goVGimkYqGOOgIULKRQmm/uuB8+A8r/bRhxe//fFpY8AdfKA5aGymgV+z5N/2G+uefWNNqxzRgAGhFxBy9j7hst5kQdzO3W50HitjhQojUng/AWXyyNfmXgvACGkIUgy9WKRWLqiNQXTXR376CoHT7zr+XVO+v2QzzfuSzRZeecvha4vVm5Jy10GKUULoySFTnhHBJ6KcRwLNOgd444FJOvQ67WOTv88EN9LyNg9jIk9DgoaeAjd1H5OLSHNYZC5KQI9jGJ6LnnDs4j2Wr/xy3pciLZqDxmasahaO2fvQc4cLpU+PNMLuQqUfiShhtOVAsw2OmbcGNDgcYTUvFTrrAVLJlv4g6jMpiscwQxVxmCAxDegI4Dz72DOv6S59+oFPvOtnm3Ho03YTsvlNfQd+cZUwTtd75vbYZh8aboDYjGQCtO6i0N0NhwZEUVYjEyRuN67JpU3gIFe6vEZSNjET54ihU5+9KhByGENhpeyqpRfxyUw/gOWOPlIO1pzy1Ikf/c20Neh2PPAcNDbDmId/6+dvXFUufHN1EL1awISmlaCqVTTdEGqBPIT1g8amQhZewBrp2qpAYIHCkYRBg9TFeeABzFigaNoYHh0BGqPOHmp8Tf/g2Fd2h7kdR1x104HPV+csXaMV/s4we+GHNEXOgV0sMIejNjYKxTJl6JGS5tbbuMZs3CwZOp7ToEsv0s8xLYxzTSHvj3JU7Il4IYRfh54MXb2H637p4ZM/OrIZS2ZGb5KDxiYu7z8uu6PwYBxfMFYtn+kYulqySxgbakFFGeVKDxphnYVxN+ZpyCfeSzmfbdCgp2NoytGCnEUlD4SeoBFAfSd+gJJpouQ6981qDp758Invv3dGr8qOk9tvyfc+tqbSe2Fsde1pE1PUjeB6Aco9XRgcWAe1ZMnqUyYXOKlFvm37CaBB1yPtOlYks1SLqJcl4bwHcUICSjIRaAQxyoaC4cEXVswPGmetPPmjO3VC3VS8zjlobOKqLLz6tiNHuvuuHHS9/YyebuimgdBT4DUT2IUS/Nib4GlsaHfrz2tIlWGutMQEGpJiLolMVC4MIAwNhtuCOji8ot9vLrUGom88ev4iIi/sFq+3fue23gfr/hK/e9aH1WIfZSxRb7RgFGyYJQtNv9WWBmTPLm0ymexx8NR5fo2T6RhsiPJPvJpQlshjqpiLCIGQOihqLGBS/iNowhxd+6sFzbGT//ypY3breSk5aGzk1nvL5bfOf6qreslIsfqRmLQegpAp3apmQlcLCEPiDcinU+ZpZE+2zn9vyNOgdnepEyE1ImihU/crJe+kOhWFKT7U+gj2qLfuXNAYO+uec/7lid0CLTpO8tXf/tGRz6n2FSNKYX9b9KHa1Yt1I4PcyKbaesekeVnyphcL9rSrJ0wPWz9oMBlPgR4oEjR0BaEIEZNkPJdwdWhRBMMP0W8qDQw8d7G9OrhkdwLuyestB42N3IEHX3Pb8autygV1y54TaQYUlTpUU/UoiiNIkYsmtscx/7A3kYUhabflxionZHwRygYr6q0gANEjAg4iilFyLuQJYeXWyPKDWo0v3bP4yO/sboBB50t9KY/P7r5o2J51jF9Xu6xSFaqlYbQ+BsXW2dMgLotUMtf4OmTXZDJ4Z/YjghfjSyq9qNF14K7ZhMGI3Q/6kzoN/QTdigkjchEHA4/3tAY/8cRJH7xnd7wWDMi764lv6rzfsPT2l71ol66pm/ZbHd1AJIi/Scky6v4AfKpuMClR5xbr9tTzDtDY1HfQ01CJSTM0QaJS4pNAg5S3NQYN2qdtAeXG0B39K1488aFzpn9/yaZssqH3D7z+ltc/3tKu2We/Q1811vIx0mqhMrsbTddpt73zgk6rKJOn0L90vxQC0kQ22X6cMtRZtJirMWkYQx6gFqswXQU66b1qTRRqqy8+NFl7wR2LF7e29nym8+dy0FjP1SMZukeS1hcb3bM+G5im6ms6eEZXIqDGGi9SXydhHIIP+r10hbf4xY1WmuyyyhKfVG2l3EZiMhhpajDc5zePW/WRw2d0iXVzbLfvjT87c9C1z9N75lSt7ipWrserQGkAACAASURBVFsHo1ykegd/vDMc4ZCv45qs9+rw6s80WzsGMTGbV5LGIDREbghbtSCiCAUrAoZXPN8ztvrTj3/qX3+yOcc907bJQWM9V/S1193+5nXFrqsGhXZIoGsISTiH6ckpaHA3qy+54iTo0C7bbeHy4BGCmtwPgQaVWbmRk+Jsm7P3tq6MFr3RzyxQBn+2PxrDP1q0KAvOt/DLpv/mb1h2657LUbxiVC28LzILSqwbSAyDe1PYP0hXswSL8cHaDCjrO/1shCPVWrOQhKUEZQsAhYsRTbVXNVRLvagPDbGeaClpwWit+d4cZ/Ds+844fu30t+yWnUEOGpPsdfiSmytrtPLXa4Xq8WrvLG048Lj1WlBPCS8ojev4pPHAJVO6hbMyX4fU3OZdBqlCRaBBbE+e18gLnDwNHv7KZVdb+Gstd+i/y37toR7ff1LURp+xvWjF7z578m7HGdh3yffePWj1LLXL/Xs60OBpCksrdr44p8Epp7SBsPPNlMTV/lWaeJbcGGLiypZ7CRqAbihwHR+aVWKpA6XWQln4aI69uLJfND57WK/1g90NyHPQmHR3H7b0F+95NsFlUW/fwjFqZioWpEwfCwGnLMO09XrCE22LASP9Ylqg7KuE7XIgxdEkGUy9nYoukNQHUahqiJvDiVKvDcwximsLAR7VveD+Uhzcb0XJs90jWPOj3aAU+4Zvfav8RMO6QqnseZxS7cNY4Ml8E4vxyFcGGhKAOzyOLBzpvOYx5aoiJKpswZdeYzYyk4ZpR1A1Db5Los4CFcVAl62hNrwcdjRyf6E+eOIznzx+2iqmbd7DbeJWOWh02OPdS3+x7wuRtsyfO+/vn3Vr0Hp74Lr09O90dSXph4YUkefBHsfWWJ4+w9aX0jBZDC11HuTTjrQghK4iij3oGnFDRlEtWIDjQvMjhC23ocf6aNk0n1ID969G2PqvLiX88/+e8v7l01nFa1PmfM23f3z4M15xGXr2eKVDUoqkhZi+SEODrarKagqBhvQ4si0mhi1EzCDQEKDwkJrvSU1ek3KNFCvGARQS8IkVmGYBipfAHR1BX1GFrTSiJBy4sL8xfOkDu1FSNAeNjhX6mqV3njZidH1tzLaKQ5ELe14/nFEa4Mwj2uWW5LdSr0hEeQ4FoUpCL+tPM3TSyOVn2xiRYUXaPy/3yR5HNts1BQ1iLgpdg2VrqA8NwioXYWkC9eFR2LoNS7fhtxzumTCTYI3w64+WIu935ah5d1fQevRXMzHmThJl4bW/+PyQVf2UZ5e7AtLMEFJwh0V3WOFM4/IraZ2w4lecXaMMNOQYBHlJKSDMxH4INDKN15jaUhDTfE3Q2AgNsROiUrSRuE3E3jCSePTpfeJg8V8/vmhKDdreFPBuy/s5aKTWe9VlN792oNC9zO2de+iYakIrFOE2m6lALQ1lpbIG3dG0igS02GTQiPm/l77aE74yfYwNgUbmbLB3MY5L2R7l01KKE/MkU3ZMpLdDPybPRJFKVTQ9TCUh4tALRRis0GPnftNt/HaWqfzOMpxHZ5JYz1uv/+EBK2Jr6aDd/1avUIGregg5J0StwTZEi9TKBUKLwrwIiBz5HoWDVM5m6mfm7U0ssbYBnq9NBJWo5oqQXBxaBhQ8koKaCpR1BfGq567ftzl0wb1nHbNyW27G6fLZHDQAHHHTTdaoOu/Ctbp91lpRVGNhA8JifcokJAk4H5GgRCUlyijm1SBCIxUTXn9w0p61sUkLT3KX2yCSAgjrdKTsxA71KS4vxhEPIeOJ6KQDlvVlEcuU3osDVEw1aK5b+dcyvP/aw7bu6F039Kefn3Ncfbos0I0d5+uuuvnEZ7RZF7g9s2d5aghuFCayXd1F0epjxq6vCVb9YtBg4CUwofk0E0Fjg99DVHKVQCPNZ6UCP/RvGlTlDQ1jXgFre0aXn/zIKR+6bSbYdVPnsMklvakdzIT3D/zGzUeOlspX1O3K/k6hG0a5F0ErROQ6MHhgc4iAEmUcXqQTviKdn/By2Nf6fI2Ouv/GjLSeBqvOiyJDHOlas0fRsXh5nCNRqVlJkECDBHM7QCgJEfsO1MhDVSDQ3eZzeqv2265Eub0StX5795nHTptJbOsz4dsvv7Hn8eK8y2rV7mNpBmyLGvvK3Wg6IYOCoptISJGLQpOYwg/yKKTSWsKgQSCy8YwUXQtWMW/PU5FHQqBNvA3V9dBnAsrIyv+c642e+IfTPjbjpQF3e9Cg6eVrK5VvrgmSD6uz++GKAlwvBkIiVgketRGJEAG5vnw/yrKrQr3TtHjo91mprvPPSas802h46eInWvr466UXRAJSNkiM/p4BR0RuN4ffUsCYQINLwmlsRLkWIjzalo7m6BDiVh291C0r1GfjZuPXFd/90XwvuP8/zlo0PF3B/5AbbnvLSsW6HuXKfg7NSUEBeqGCMZqjq9MAqzSATORIS0p7EtJH7UHcG8eN7HpIivq4x0GhihKFMEL68aD4teYCNbjoZc81vzHTq1i7PWgcvPSOj4x29Vw+qqr9TUqglaoIvRhaQspNMp9A5CFulU77FLjaQT0JlHZjMKGRi3T3pnV+/jMNL9Inf+dNn92gkow0OTyZ6LVkLMf25zu8GskDk5eQqjnkZUh2qvx65irQHGXLQOg7EGoCS9PQXLsWmiFgI3nOdFr/Xo3cn+9XsH77nx97+7ST63/NsmX6mDr7krjae2qkV7Whmg8PBkqzZmFkdASaoSGi60SKOtTbQzlNmqjGlVXZ4boxZ4Nm6WaU9Aw02gnuKIQlFKihDy30YbXqD8+pD5/60BkfnNFiPbs1aBxxzU9f9bRZunhFrL+t0N+LFg1YJu/VMCH8BIYiEEUJ05SZ+MnTx+lOpCe/HMocctiynvBkEmhkQJGNLcj+lB2unYUVOR+FRy+mf2beRZYMZdc4G3TMxCbZ5CZBY5xLwrM+aMB0FMColOAPDwOmDt3QETRqENTc5Xgw3cZfekP3J3uhdec9J35g2g0IOnzpDw552k++pfbMP6zlW4BZQmJaLDzsB44UfWb+VwyNW4ZILyMz+ngCen3eVidoMDin3kb7WkQ+EqeFklVENw20Glq3tFRf+5m/nP2xaQfAm+tt7ragcfR5txoPzLe/PGTNPtOzy1ZkECeTtCcdGOUKwnoLmiqHldBA55ABI33R+AEujRKYdCiIr8/qk3IWk6uu/JH1lWJTJMnk9rOnW9ZJK2Nz4g/I1Z8xGNn9TkMYmqhOFYXY96GVbIStFmAIqEIgbjTQN2sOmgN1iNAnvQivjNaDujP0nble8IvpVgk48Fu3nrAisj8za/bL9hsa8xGaGjwS1JFyXOPt8wzmdM1SlyObQr+BOya7QTr7Wtp5pTSnVNAtBMM1FGIFWtB8orc1dOaTp71vxs5L2W1B45Brb3vLqmLXklpSPTgwCjDKOrywxQkzoQlETgBdJyUt6jhVZbadXmnuTAuldxFpKZ08C0/kyOJxannnYtwaa/OiT4lKWet9SmAiibskoz1z3lXOKm3DmxKzirlJw38aDViVCo93dBwHutAQeAF31AolgW0baNTWQfFqq8tu7fZ9de2W4urWH6aLmO4rrryhf63Ze/GQo31w9p4HWmNxCJcCS5nJ5A5lvnzsLEZQSEBYFrEnskYng0eHJsdLNFJ4fxHgh7BhIiG7KhGKzsCP9mkOnjndgDf3NDZigbde+YP+xwvFL48UZp2o2/1wqIxPYYYIeRHEkccJAUVVoQqTBzunPdPMFCTnwkj1M2JNRcDK4SpTONgziSjplg2C7pDGnkw1p393dsd2ttVvqCIj3Yg0DqfWegIO+neUjhtMp5BR2ZWTgBEMQ4fbbMGyLASuBxr1aGp6qn4eI4hlgtBUBDNNk2YNwm/8uRx6t83X41vvXfyBaSHf/7Krf/jeQbvnspZd3T8yLSq0QjNMhEHMvYCM90SuYP1PnzVAafxE3CbVyEXTScqj8GR9LwYQEjhW5bUXtHx8H7riwk6aK4rO0GXPv/jwVTNxiPTWPPs2F5Cm7HZ/c9UPj35KtS/W+/fdR1HL8IMIQeKyzFtCwAGiDmvsafhB5jWkpVbKhyYxtDj1NMgTSVmIWVkuW4MU/0ZBAMXQeSHGlDOhz2nyqQeayZouPrlas+5MHs0mf7JFO2Hx0vvppaOGN358jo8Yo5BGDgWisF4gCAKe0haHEUpmEYHnQ1NVNL0mtC6TdWao+sI6mXSn8aT7CFbiJ0Z95Jd7qvFFfe7Tv7/r9NNJuHTKvkjP9RFDu3C5Kj4pyt2CBivx9Fsqv4aSUh7xgBma++pP9DQ6bZ2dYeplbFCVjZKkFCJSjokIf0QECxtQgjp0r/7rOfXayU+cMfOU1nY70DjomzctbM6e++3A7n/j6tVjKPfMk1RjqoIYskU6gC+f3jSblZrWqIkpHbdIE7nkAPNx0JB9CoQH8imfDUBqK3nRnA6hQDNNXmARye6rKkzLhue6sgwo98D5kwwA1htHp8zQrKyaKVWx6531WGReCu2WKNCKgLBsRF4IldiQYcQDmFQdcNDi3grq4ERA6mMKhKAbgGQA6CYIUFv9/EOzRHDTnkly+wNnLFo+ZVEDwMuW/uCQZwrWD5RC18HQi0hCKrsSSNOoCaosESDS4CQKXaTUoiTbjAN0p6eR8TTa9k1PPntAEAWE7a6pPMxKCV0oXgtm7I/Ojd0fLagPffZXpx4zNJVttqXHtluBxtG33ip+00zOWZvYn+rp3rsnDnW+p6hfgWQtFI2qDQn8OJQAwE9/qe5E+QMmc5FGaJRATYkX5NhTFYIdhziU4/5U2SQVRQH/3TSJcg64Xov3q1GuhB7ovg/TMOV+U6p4NOnpNlFYRnojnapUnM3nrljZd0GfpwSpTK4qUGkCXEDkJs4GMv/EKhbhNhyoBs05JVAh9miEJMpk/iVo8I2hCRQMFYMvPj02X4tvmtsc++79p3/4oS1daDtt+/POU3vm7fv5hlE5uzpvv/LoiANFsRGrRhqGEGCQOdhaUBhQxtXiX+JVTDrwTNgnAw3ufqbJeNRmABq0FEGLAhTVBD1xsKqwbu0ZD5929IxSMN+tQOOQZbcc/nTRvsIt9P1tCRXURlooVyvwY8nF4JZ0kbZYUymTQoJQ9h5QiVMurqwPRHZSxgEJDVMyUTI3uYrBfA4JGiW7gGazyTekXZAAQYlIlvIzLSTtRqrx1TlBcapjpkrn+s1KfjGxEkkcl+aRch5DsIeUJlgY8Cimp6csz46NIxiFIvymA+g69+ElIYVj1E+RQItizsmwx6FpaFD/TRSht7eKkVUvYI6l/GK2ri0RrefvfmDxYgpmptzr8G/etHBNb9/ly93kyEJlDmKF7KwjSDtiKVdFYWISBxC6ztPls9cExq284BPObzJoaIkGemaESoAw9NlJNBQVhdCF6bVgReH3y2MDn3rkjI/MGLGe3QY0qL/kcce4aF33rBNivVQyYhtlq4i620SUtVAzUJAGqAw3CABYiY9yBOni4cnl/KRK1xJxuygnkJU60+YxRLQoQ+gqeSIKgwZ1SwpVhWFo5JbA933wTU+fp8aztKybieJGNCmeAIG701LHR4KX0l7ccQhBYRTJ+JC3kMgELjVYMSnNl5PTrVIRTkAalwJeFELRDeiqznNE5DEoMHQFWhQiDDz2WlTNYC8piiJ4zQYsTUEQNKH6zoN2HC9bWNV+fO+id0xJNukB19z8weFS78WR3btXqBYQJTo8UuLiafMyHCNQFyb1obwUNNreR6eiecdg6Xb+ipjDJgkzkd2Iqi5gqho0r4m4UUNJE8/2+83PPnLCu2+dcui6lQe024DGIUu/956nYu3i8gGvOHDdcJOrIdWuLow1xvjJrKgmVMVAQj/EBCVXPYpgCR0KUZDJI2A3lNrhCTTaki9QMg+D0/MJkijkzDzd7rZhwqe5JVECk8AiTuA7Lt2oLU1TW0kUeYomfKEIRxVqU1HUESAeiuOkjiRqqIpoxCJWEpkoUVRVURWVoEQxFSQlVUkqutDmxYh7fM8vRmFcYqcJsKIkLhaLJXhBAC8O4SURjFIBLXoi6gKB60MYlfFJ9+2wSgrokcNCx8uk0zBAySrAc5oMomEYrpmveMsOaq394R2LPzLlqis0RPqPjnJx0Lfnx327IgJhsqdBQRzldehhQGBIuQjKbXR6ENm9xKFmRwK60wNMkRsxyQFqGm8XE4CTP0egHcZQ3CaqSgizPnjXvNA7597TFj28lffplPrYbgEaf3/lsj2f1itXOD3z3jesWIpq01hFFU6jAa1g8ZMmpmQYS1FLb4PKqrSwqEpCoECuLMv8qYKBg1nkSQTSf0m4HT2RiyWR4wyEkvz/7b0JvGVVdSa+zrDPeO9986uRYp4DMoiiqEFxQDtAHCAd0U4bg0QhdEyn7c6oxE7smH+MjWIsRDGamFgGZYizdsoBCAgKKMikVQU1v+GO555hD+f/W2ufc+99r6qoAQpevXqXX/2Keu+ce8/dZ+/vrL3Wt74vdQ1oRjOzXSdXXc+2EpcZO1zDmDZyudUVsNE21HaloMVMs6FylRi2mVmmkZrSyljgZnGnkVa3VrL1sF7BBz6Qwwc+YFx66qnGQwCWX/dtvzLsGir3mMkdZZi+lGkQp6YPphpXYB0hpDpeGOpow/WWz0SdZYbveR0hRnOX2YbvQ245wDEyAVRUN7SPC9FQcbujcycIHAx5K1lKCwM1PJIkgVQIGBJRdDSfumV5nv1/X3vX5fcvqJkNAOd8/OZX/MLyP96tjp+GLFGO1ROMyTDSKCwoMB9B+Q3KBc1rXqMowy60knT02fdPwYAFq1T9nAjln4oqFvJfHCXAlxGEPI5Zt/E3x2dP/tVCr0Dtyz1c/KCR58ZJH//i1ZFT/fM0HBufNVwQNgM3cCGLuxTOe2EASZzi6tDtCFyAwSX4zKYwFvf4NgnxAAjcKZg5JDwjTQVmA3jIDW3EqWNajVikM8y1t9uW9YhvqW1B1P2Zp/LHQxZHMuukLrjdY6DeveE5yAdcum6d053mYeK6Ix1ljcSmfWri+CemtntSLPOTMstelVtWtRslpuf4ekuDYOk4lABNJAduKGCeC2m7CXYQgInu9miK7HjkA+JnLTmikn8ZTpIbf3jFG9fvy6R7ro55/XXXuY+wVX+yw6/9nh0sH87AgURwMMOAmve8IASRaesIeiCQIXdZzS6XBnYz634eelGFTB9P21fQ20DqAaLQjPKhNG/wgRMwA6LpLTBspA9Npu13/eyq37zzufr+B+tzFj1onL32ltM2KfvvpR2e545OQt1gtKd3Qh/5lKCSjMqeduiDkEUfiZS0L5VJRonQoWoNOp0W1SgQSAyeqTxLZ03FW8yCdpWx+512vHPECx7M7fzxVPCtrss7P3zrf2osNNk9rCBNCX9Egr+yGWUnGJ59codnZyQZHM/BnnBqY8unOwmEo2PQ4gltxZzQg0ykkHMBYRDSeIluCr6Psv4pGO0WHOX7Xx9Loo+sf+eF3zlYk/VA3vesT3zh9Klg5KbZvHZW7o+COzIC9emdACEDB3NYVG/X5VdBDNJSmbxAD8PZN9DAkBNBAyNWqYilzlCsPkug4ubgyg74remPTqidH7jvyiubB/JdFso5ixo0zl+3rvJkVPlgwxn+/Yz5IF0fYoH90xZYQQAyTgCSLulvYt+JG/jAMQmYcfBZSPmMJOYEJgyjkCzZxuL29JAUP6ll4gfjQ97DeZbNeG6+DWYh/fo1b1jQ5Kc9TbpLP/OZiQ5UJmald/y04b3eGj/ildtb6THCYXYsMi1iozJwKwHtXAQmXJE9imVooSCQEqpCQDVufX806fzv7139pm8vlAmO13Hq9V+8YrMz/pddf2iCYwfs8BDEMgKZpuBYgS5hkz4obkFLPVFcGlahU9KPNJDjUUYa1ACnsMUgB4WgYZegYYCpDF2ZwgeQjWXYCIyZLU8s69b/+NH//juHdAl2UYPGsTfeemHDrnyEV8ZPTm0PUgwtRQLgMLBZAKLVgYpvgWsBNKImSJmBZWE+Q4GRChlYbKepoO4z4+dmlj3qAV8/bucblol4+pZ3vPGQFrDZ06L+9Zu+MjzLRo+oK3ZSytzXJAacKUw4jgXecCeJoRlHlPsYXr4C4kRAGqfAVA5DtgV2axaG0+ZtJwT2B2975yULplv2VR//pyM3+ON/OxOOvFmaAUTI8vVzXZniWvGs3J4Q4Yt4LlrQiKQGFP4/aZZTVoOOIWLYAGjQ9kQDDSaPiV1bKKTzTh2qQx5UeQTV5o6bV3Sj319/zds2LyRg3Z9rWbSg8bJP/NvIQ573fxIreFdmeSAtF8BjwCABkAJcA82IFGlMxN0WbTtE0o0dM9/uQL7Jz5MHKmDcWzHkfZ7k23514/2ta6+9dg8SXfsz5IfOsVimduXo6mlpXQKjo+c+Nds6w6qMHGVXavZMswPdTIA3OkL9LTnPAL3O+JYN245h4qNj0+l1C6nZ7fi//fybtwUjH/Imjjy+gxyUiksRk4h1soLyGZTbGFDqIvlETYojPVjyU5kPGpoYRolxjDQwmY7drijUZBjAkQ2sJLiuAVbSAqc+VV/Gs//+6DVv+exC27ru68xctKBx5idvOeWBzP5CZWTZC5TjQ4YNaJYCZnTBkBIYuGBkyD+YbXpSbqox+3FP8h+7IO5ZPTy0GdqdJ2+/8qLD0qtzd5Pn4k/duqxtBWd0zOA1HbBeubMVnTZ25JFsU6tObffIOXFyDqwz21ydp/+8LG3+6UKiT59//brK40J9OB1d9TuyNspQoAez3pY/ovuC8EsTS1TrbVC5NTdpe0JVE8KWYhtDxW8dbWBLAR5L2FLmNGhropm6mDh3fAeU4iBadZhgBkzk8gfuzMz//MnVF921rwt1IR23aEHjxdetO2UDq3xOOpWzvXCEknhcxMCtiPoObOU+ZcfxfWOS37MsF98ZjeRTX3rfZdsX0s1ZiNeCidSkMX7SVK4uaNnsP0+p7IROrsaqY2OQxR0wW/UNY1nnr89Y6d640JzHXvy3N537kOn9jbXm2JeZ4TA020lhGI1cDQwx+oEkyQyQcrnWKtF5D72NIaXH4lgynkDiHumqFFR9BA1UUjMt4CoHFrjAG7PgDlWAxV1QszNywjCvW54mH7j7mje0FuJ9frprWrSg8frr/rH2mHI/2bCdVxjMXe7wXPqOtRWsZIPMou9XpfuTEcP88fev+vWnDrWbtlCu9/yP/etJieucm/n+W2bj+KgkjqOKAd85xjdu/NYVly04gV0EvHu28fc+yfz/YQQTkyMr1kC90aLEODFsSTe0sIkoKL8lYFCcQaVW2AU0CFDKTmfa0pSAY4EyTVDIcakEoHgMbg4QKAVekv5yNJr+/Yd+9w23L5T7ua/XsWhBAwfg5dfd+KIdQ0NvaHF50lDOtvmKPxQo+I873/2ff7avA7R03N5H4PXXrZsA3zpWpXm7NqUeX8jCuuf+3U1HPcaCD2e1lZdKfwgSIYmghfR6vQ3Rre64MaEdS+nYVkQWBBq9qGLAdbrY3pQKarSwSGMF1eyNwtlekQ4LE4pUzCudmU8frWY/eOfVl2/a+ygvnCMWNWiUs+DsG26oTaZpsiDZeHlunPKlL7Ejt1foXsRVn/6eqE/R3+FIlEdhyBdaqL9wpvD+X8npa//1t56E6od5OD6Zo+gykvNwtLFSQsZIuCUpGhRl2UKvSV/EHi1XDcklFIJIdD5aJGi9ld4hGGngeRiLoBo6sYxRi1qCHzc3Lxet//XwFRd/4VBKii5+0Nj/OfXsnpHnxouu/8ooAIwZplGVUnl5rsKMwURmWysT0xuWpjPUm2eFGIeJaXtsf0lTbhkyY8xoBTZrJJ3mjGNYs8rgDVtlOw2bzY75WbyY3NOe3Ruw67u97EOfGJmaPP7/7rC8t0JlCEW3QChUOSu6g5H0VSID6aboXIcuy5a/GrB3LD+iBxo6mapDFZ0rwffHbCrS1ylFiu54uF2JG/ceY+W/dfdvv+Hhg/29n633XwKNZ2ski/d57d98Lsw9NpSEI8tnMzlZt63jJGMvMA3nxDzHxDkfkXnuK8fyDeYw1HmgrlpVJNqKTHzZ+o4ub8yxIIo6pAkUem6WJnFkWtCVSbYjj7PtFdv8mdFpbBhn5oYK55smcrGj0djYWX/ttaV67rP8LQ/9tzvto198xUZufdI54oiTY+z2xW0JSgcgYKCZEq55akrsgwZ+67K7me5ZIb7UG41CtFhHG3R0T0ENSWHYk4TbHgINlAhUAobsPHNntvzZUVvv/cihcr+WQOMZzv/z3//vdrw6Xt418mOaaXSmVakcy03jRGGaxzSi7qQ3MupxIXErS+U713TAMC3IDAOExAYnRyficJYiqagUvy33yBZA1JiFyVUrYHpmSqt7pTGwICBBnSEzABVn4DEzStr1hiX5rGvmm/IkfWCkUnlEdNqbx93qAz9898KjtD/DoX9Gp5///pu8mWWjH9oRVn83ckMPLOxwRhFplG/sxQlFg1pZVSmUvqj4Sp4We7iGcnuiaNehtVa09y5xPmj7g3RzAbbMwGvN/GBF3Pijh977G3c8oy/1HJ28BBoHMNBof1AfiZe3XPf0HTB8ZhoMnSus/NgU+JGJ4B4wgxJr2PSF2hYkAlawCi3AyMIGickxqtIVKud0HQOTEzsoSYVcK3LxLAE/8LAlHRzPpb+VyKFihlCfmobxsWGQIgHGTOp3aDdbuK9uOLmaqlj2fWaz+eiEZd27JrQfWqG2bX4uGuYOYGif01Ne9Leff8GT1eFPtoORcw3mgUIRacNGLNYeSj3ZRGxOK+9N2e1a6LzOsf8eAJHCMAu1WlHtBBvbUPWtfCqQM71QYBscVH1ntNrJ147saPzFff/rsgXfl7IEGvsxTc/82D+vjAPvV3LLfQ3kcDoX7NSuX12VGAxihT0tOTXCYcQguZb+epfmTgAAIABJREFUw8WNOp74Hz5shDJ14g3b6AlUkEikvVqxBV9jh35SEWlI5iRwjKEtygMGlRo9rbqtFjhhFbJOG0ZXLof6zHawDAlV34FWqwlhGIJhmJAmnEqAPli5EXenrG57YyiTH9SYdWdgirvvevdlh4XT+Z5u85Frb7lqJhj909xky5XlgbBsUjlD2wog20vsJ8H7Ukghlj42pA85uHUp7TW12rm+odppj0SWiCmKyVDMcWgvHTTwtgTS8BNgWefxyaz7vseuvOiW/ZiSz8uhS6Cxl2G/9CPr/F+GznEtr/LSaSN/ZaSMc0zDXhOajm1YDDLDAV7U+L3QhUarBRZ2what1PiEwQWPk8VEnQ7GIEfSD6pIKXR0609I7cKBiTLNS8T/x/lq2zZkmQDHcUi6D3s/PD+EBAWKyTZeQp51wbQNsC3UKAXSvMD3CMJh+nz8GBUnUHVsMEQK0cz05lHL+FEli346zvJ/d1P+8+8uIkm6fV1Np//9lyen/eo/tG3nwpS5gMBhmGjvoEWIy1dJ7tLK74X/UhF9lPaa+pbvChqoWELNa7RFKUyuCJRyMFQGFYdB3JmGWhx9/ahW5+p7/+Atv9zX638+jlsCjT2MOiY0p/zquW3De7msDb9VBOHxUQ4QZRxEntNCtkwGCcayNFeKoTT7DuPl9oIihpJuXBo4owQgMQsLJiLtd8sIAydrX3Kwf4lF+FswFYupWzwFiVU0J3FH1cAsA8vzaNKiYpiZ51BxtSyAjNowaltg8WQjjxt3OCr5xkiuvvejq37zsCK8nb32lrfuGB/+8GahVjF/FKgRWiiy5dS+uCiKYIMgm0u8G6hIn9GDASOSUh5yzlSi6VBGJ33h4tKOU5PJylyHgLDiQ7xly9TRAB8cFk98cqHqr5aA+XyA1YL9zFevXTdUB/esnVK+umsHF7DaxJlxbjmpyClCsDyHnu6Z4CDSBCwW9L8L5R9oY6GtEovmJ1zMJPRNT67CoqB0Tetl4AeTbf0Id/BJRzeMnNyKRBpl6TVY6aedrsCUjVfa6S0nlXXskUB5O91XhZ2YKJrMoWIxaM9OQW3Ih7RT3+qI+K4Jy1w/EqffW70MHj4c+CGv/j/rhh4Zy6+PVqz+jXpL2ha2HaScbDmJ3IVbkdyCDMtXmMpAhzaRacnAPYJGHzAG7+Ecm00SScOtpwToRFCrhlCLorsnG9vf9eP3XPLgQl0kS5FGcWewoSkGfk7D9C+p5/Dq2KmcaNeGba5syE3c52qCjk6Q6cWJViHMRC+TgYYnPBBVnUg2sA8E5OI16CpPa7yfgR+cTDpw0RHMoF0B/TzXZCFd0tNWCf1nWskhIKNZehkWJuC0diVKHNKTDrUxlbZaIDQTHALLBqQ5ySyGpD0zPeSZjweQfXXcELe9duNDDy32Dt+Xffr2F9wTR18wlh9zSuaFkKPWil8BSIUWl1YWCRJp0MBBFIVl2x4qKMW970nJlhHmnMQp3i+TIlZ8GMjmLExaInOmNn/0JJH+xbcWqIn0EmjkuXHWx7784i5jFyW2dVHLsE/1J5ebbSGhk3BgbkDRA4rG0jLFbQgaCyOAoIeJwWjx99TJ5z0eykU9z/lPH0ULXru+I+yUCuP677ld+JjM1KfMvWX6/TF8Ll69JFwBJahhierjhgG2rUEDk7PEJTBN8n2p+B4k9RZUPAbdbgTMMUCZHByV8qpMfmrt3P6vxzLn1u9e87ZDhoC030/pPDeO++Qtf96eOOJPZ5lvc1TfcnyKOIgajmnRQvJRd7CposSyh0+aBxqlejk9ekpqOuqzGiRFXFh9cvBEG4K4ce9kKj9w33t+7av7/T2egxMOa9A4+6Pr1qS1ZZdtjuO3Tx515Ekbt213MpuBNzwMCU4a2yY9hVIwVi9NLURLLly0tjVFcL5S9fx7V+o0zDmOkg6FEVPvhNKwaFeR293NhzL5Nod0NHig3ikRLPWasQbav7EEjCAiyQUOXd88rcQuUnBN5IS0oWaJGWhM/djt1m8+1q98+7vvuXxBJ+oOdN28+qPr1vzUrnwhnVh9XoQ7SRv1QbHXBEAgtg9iOeWjdHWE/sx/7RE0yueFFm62DRtsspLgUPVdiOtbwOFpxqLsX45z5R/f9e6LFlx167AEjfe///3md1ed86qdln/Zhq548/Cao0brUQdyxiAYGoZ2qwHAPIC4C4AOaGj6XDqqkZGQoLAfk6FK6tKqjgL0RBh8YQ1Ehyi7RgiUn0CGYFnGowPn5TYKYtDubtTgJ/Uz+GW43D+DDA8wolZo5oQeJ7qMiDkOFBROs4wWCPrOmswjxSnUR3UdzH2gmhmHtDMNdtKqT5ryrjEhbxozrG9/58qFzynYXwD5lY/f/sZtrPrxPBhamWIUyDCXAcDRFA/FuTgK8gBtVXT6ag+6TPsIGmjgTYbcJoO43QSXAYxVA2jvbGxZafAPn1rZdv1CyysddqDxiuv/+YjpSnDJdGRewd3q6dyrgXA8MFC5y8iBtyNSJWdhVROpTAvSNNWeqChp5yJz0NBPZgz7LeQP9sFiPmigx8bc19w9sHZ87/9sYKNRnLb7SdkzSwJZwIwGoH4mX78v2Taa2KrdBw0KlZFZqhTItAtoZ4DGSRZ6g8QZ+FjO7SR6C2ZLsBwTHFSeymNIpqcgTNMtE677Q69V/+J4GH19MfW9nPfXt1Y3OfKjiVO7HGojLrds6DITuKvvkZWhUTaCBtpYlDTzPUNTb7fY80/p3096yBQedZ7DwLFsEDGHuNshJbkgbd9xhGhe9ZPfveiB/QW/g3n8YQUar/r7f3rRL0znvS2v9lorGBqNlQ2mW4UUJwGJ5RrEhShfaRQRQQrFVEhP0rAgK+TbAE2UHANyEQOqR+4Sne5CMZ4LFnrRI1u0dKUv3qEUd8Fts4k9CiSmpxOY5KJgDPytF34hcjkAGsVjsCjNDvpxaA6Ilt/HNxXYcomRuESfF0by+woNkhyX6NRcpmBVPJBJByCNYGh0FGS3A0mjAatC/2esPr1+tSE+vf6KX3/gUOrUfLpFddYnbj53qzKul8PjZ6V2AF2bgWBFrwk3qUuVHE5K6b+nebPBBTaYqyofLqaFObGcwJtZDoTuMHFsbEuBGdW7I0nzI+P5xr9YSCXYwwI0XrJund+IjEua0r16dNnR523vdKFpCrCCCoBEiXoGSRaD4rznloU32GMo04b2ihoWyDIYS2w0aiaAiVWIVLdEDzhxlYBQzqUyWbnbvMfAeXO3NXqrXIrTkgQdpiVIBLfopSqSp1TTobwKxjxlRaa4tShzWNDRCTyKrk2SuLOwjFyAhsDOGN1IRdVYZEUS9hgAaUog4pgGecXgubjD4UkEq0bDnE9v/xGLo5uXQXzbfQvQbW1/n7pnr13LZp3hP9thuX+mKpOA/lM54P6kSGwQHabIZ8w3WJr3YU+3wLRAsd6S2kizQRKI8rViGHSB5TFYzfpPj8zi//rg1Rf/eH+/x8E6ftGDxvk33TT8aGr+lrvquN/b2RLHMvBp/556FiRcgG141EimWZto9qyHBCm+FNoXEQGF6qhITXnPYtgopY5VFfxTHqtvVR9E+mXROTex2JL0+hsGfjkIQL0fD0jRzQEXktTPi611uT0ZyGugilTJCUFwK3Iu1NPSIytpYiqWFikCwVZuTHuUH5RJYBYD27JIC5S8YpkDnHfBMgQwmUCQ89hP23cNRdE/rs7z73zrECeInfNP6854XJlfTIKJExIzBMhdjMf6uSlsNixUzJ9uce4VNEjQJ9eWBwrJZL6eP3kCLE8Buu3uUNT8u9O6jQ8tlBLsogaNCz79T8dsMNg1HX/4rS1pTSgWgrIdELgIDAdsF20NdASByShd6RQ0GfSeH/tGigalnkakJnv3OlIxBKEFPTd3UYIPRim7e5XAgJuPks9BP+uByd6eE0UnZc91vg9OvSa4OQlWfZ1l6VZXf5AXygpmaskmxZXAtR0lttblaPqM7uq4YCxS18aQ2mQOKZAzjF5EAoEJELemoWob02bSecDl3a8u89n61TXroS9ddhlKVhxSL3Snu6eVv69RW/ZnkVVxJGC0YfVvM/Jc6EGyu9JJ/6vucvcH7klukhWbBgmBhVcGCrm6qLuBlp85B1dlIGe2/3K1qT78yO9ecsNC2AIuWtB4xaf+5eSNCv4oro69Hapj0OjGkNvYxWhCLg1wpEeNZMKxQMiUmoiwwKGQ6YeEG/RrVbpGT2XW4rnb51JgyhKNcvpDOGeLUsyb3YFG7z3ILxVzKQPraXBSUXZ+3qQcSKjpX+sn3tMBU39bpHkavVeOGxLMXWjCGlhIWMJ/CWBKAiNPWhMEGiZhpchEZ3okLVhg2gyAS/AwSuMJJe5C14Z2qw4gYrSGaIdm/ohqN/5thendHG6Z+cVCsjTYFwR70ee/8fJNln9Dk1VP4gbOHcxr6fmwx6rJvDd+WtDAh41dZELRJwXHEhnCxTbSRi9YkFC1c2BJ987xbvPt977z1573cveiBI1zP/7PL97uhtfE4ejrpuJkzK5UgAUeZBzLpRZYpgegXEgzDmZgE1DgJp0oVjwtyqkmlSQp0Vj2EOBevpgU1EyGoNGjEc+tcpSRhj5/7otyAkWiU29t9Gtu7qPomiwRpdw2FQjRq54gqAy4npe9lvT0KnUcSq3LAQZqz7RUsaLrElmuQlOkQVCkgS6llHjFrZuJhC8DKGQgfjyqWyGJIYfhagUa23eCZzMIbZvMoquhD436NNg2tFkuHnbz7E6j0/zaGhvu++F7Lq/vy6J9vo951We/e+xjZnBb3QlOSfB7YTRKRK9CkXwfLlCX1Xf/0sZMxf1X2DVbRq045UywcwVMZmBLDpaUO9j05g+uCRo3PN9J0UUHGud9+ssv28TtP8mqExfujDlMrlgFOxuzWkZeocu7hd41AKZLoq/oR4E6B7hPx4VOHaEFTVzrHxRPl+IJjQOGC6l8uvcTo/MYnHOAoJw0eIzuPcHu11LZCbPwOH/wt6TyVyZaiQaAC5Q6WQojn36oMAgK9AlkSozfZe7nUTRCjNJy+1MkS7XoJVGZaZOGkQ+BBrneF8THInwmtzB9DbptvMj9YNduN4JqpQZJOwKGhtq2RQQx/C/hCaRZBNWAKSuNH6mJ+I5x0/p+0Ml+umK5+PlC3rq88LM/vHiL7X+8zpwjUjRCwntf3OY+T+PpkePpQKMk22nd0aI7FoEbX0p3SluSg4OVszgGvzXzzSPz5Pfu/29veXwf8OqgHbKoQOMl13/hwi1O5Q9FbdkFETjAgho02rgtsYAFISRxR0cNuF6xhZzq5EI3cOlVp41zcgMEJRgRMMoFokukGCHgn76VX+G4Ne8W9bWf+h2OlA2hhrOizEq5EA0CKGSrqyIDugz0G83cKNrcdpkI/a2NNu+hs0nAR5dWteN5oeNQgAa5wyOFmVS3yya3QmVbD0O/Y45AS2tBULKOWsbx/bCHi5656HIMbliha5NCoFMdMMcFZtvA8PqzFAKbQdyqg4fglESNkbDySJ40v8dkdKdtxD8+ccjZuZAA5JzPfPOIHU71L3c64dsTyyEgpftebFRl6RBPt29e2XzgLj0daBB068KXLn3TPwpUQv0NfAkTAssAn2cQT2375Zhl/O+n3nPhTQcNEfbhjRcNaJx3/RdettOtfCAKxy7Y2uUwunwNzDY7RFgyXQacyFkGmA5WSjIAHtMNInVopPGi6jQmoGzsOsQ+LkXJPgQQrVStO0sJOsjjE6eKBIVaFiX7b6BfZLAFWm87CteuEp6KXEn/HmnAKqswg+3WPYo4+WsUr0IFu+xy1dGF3koRmWvgzvaZqhivYOmwXPg5WFRy1XkVUXh36CCiiEYIONH1WZLhB+aFURQXQcTAvI+Fywi3NVSDBeSvmI5DQJx1Y5Ik9CwLTImUaS00JAUH12XQak9BGMBWW6b3O1n24KTJ/qMSxT+1d7S3Pi/5jzw3Xvv5z09MdytnTbvVS7rh6BWzBrMUdbvi1lSPr96qFZEBdi0+A9CwRA7KMkDY2I+P4WY57rpDGfNHXg7gpxzcTIDodv5xzG6+59F3XtLeh/V9UA5ZFKDx4rW3vWzaMD6oamPnz+YOJDYDK6xCtxUBuG4RFgyQmsocABr1Fk/OMvfQL7NiKV6jPv6M/h89Oi0LJLbJY8hvmSARdXCxoV+nY4PAPAk1e2iwEZkAy/e0Cle3C/5QDdKoC7mSELgORTScS2BY1RECLOZoi0NXS/oxjxHxTOITCP/tV6iaUaxycHCzJBRVNxKekspXGnchHKpC1G6D7aC8YLHFwGMHSWXIDzBK4CtBA79x2WiBE9gpoi3dko+JUlz4FnbKojo3LiC9g9LgOVAtov0/eooU0RmNZelWhglgwOpUAlaOZVuJfiAzDs9+4Qn+oJOK7zuKP1oD2GDNTNTXX/vKgyKSjH617WxssmuoE+LcOCs17BcK2z8rY/6xnHnAGQOJpdayTaCMDnsrp7AwOIDlSVtdijQUSKyi4PhKJBdilQYjDw6gErBwnqYGVA0Gstm8/xhoXnLflRc/eQAf+ayccsiDxnmf++oLf5naf2VVhl7TSAW4o5OQgAlRp0Pu8OjkTR2kFLXraKJP20a2p54QtC1RosfXKLkNeK7rutDtdsEtyF4Y3iNDFCsqCCjI4At9D+KoQ4BB+QDyBzXB8Txa5KRlgd6hhoESoqCEBIFJLpLyQ6WtDHwvoH4WKmvaDhGvOnEElmMB8/weiHEEIosBQ9m4WFC+AhOy+ITHciiBDC5qeqmiOqwBcEDyVpucE48Zo6AiLO71yCDoMSozoqZpP3RRYFKrPfbcSM31KGbRIHmtDMvL8m+/ajOYGEQcyCjxirkcC/NJWLXBRi6lEqbEZivNtqTN+j0rhsMnjTSdcWW2tWI607mhZiZSaMJqyPalNwP7jR446oyaADkhlDneisSqjmmunLa9E2PHOwNM+/jcsn2wWEWiyLBpaR3XXN9n2vgNbtvKqPLpK657XaR66DB6kfQgsKTWKdXmKCkAkrxwbDIHfGWB0Wo8coycfeu9777kJ3t984N0wCENGud/6kvnPw7BX6uxFS9ShgOznS4AcyFHDj/n4Pk+lU3N0moPJ7m+N4UpDgNJXap6IpMILCZEewtHUR4EJfoq2ETUbNHvse8EhYNxIdhZDhXPg2arDsPDNeh0OhSau4xR1GEZ2CmbE0VYSq5QPFQqIWzL5srMcyGkZZq2MzI8ZjYaLYaggcLB07N1cAKUn8shw9KvZQPz3IJijEzVHESagucyOr6TCcgS1LR0wfBDyDOuxSlxgZsKLErkKcplEJyU2VLcauD3KIhfZWWAkp2mJoshANjEFsV9PS4hAcoQVKaldnEdj+2h03du9YC2dgOVoBywrK2TtFSPKvJFFm0dFW15QpdBtzELI5Ug8UyzYSo+I7Jki8jSJ5lttaw875iZ6Lq2mTkSb6YC27UhzQ0Wq9ztqtzLmVMBN1jVTcXRhs2WW6ZbTXnmpLlkCHxUQjbRwkBL/eH3R0hDwKQp0qublV3I+nvvrbt5b+tWiyrhWGIEh8Dp0mdJijQkGCqmsbeVB3YiwI4a21ZHU//lp3/wlu/s7b0P1u8PWdB46Uf/8Zyd4fBf8olVr5nBFIVQwAIfOt0EbObSNoLzFExLPytLTkPZ64FdqqjZmWQKmOtQWI9P5zROIBcpGIxRhEE6NZID9qFUalUSDEZwwacsbgsCBKtt2xpjQ9V2p9FQVd9tMdPITCW553qpx1jMJX88T2XquyxTadQJmNsBlbUll8JiLDdsNt5uRRVp2VXDdXywnDBK4iGTseGUiwo38hGhcuYEwUia5yOYdMTudaR5R0lU7LEZMK8KYDuQJHj9Ln0nFB7G3IOFiTtTRySakIRfDNcqlk6x0orlVU1s02Cgma9IOSrDaNqJFWQ0aeJE19MSgWjPr7lgoqtGOrLDZG3JQKUFWGxt5vbKKLARyBWHJI6Iyp4X/T9+4NI9wz+j1SGQaQLddhtqtRrYjgUt1El1GNSjhGjwSSbBD2rALBfSbkrv4yIBM8dsTpEAL7gSVClCIEQPlAIUy8jt2VyMGjSweoLgaYAtcTtpgaAyDd4TLQztGCEYcQIsae5YE+1814O//+bbns3r2J/3OiRB4zU3fOWMjcr8w25l7Dd2JLntVIchybA70wdBzVYMuMzoDz0gkKZb7KVRgYm2Fyh8gs8kloPAVndSsrK1NwUxe5EraUKWpDBUq8Ls1DRUPBekyJI0iZtr1qyabczUm7mS2xywHpu0nO1BGv/STrMtoWM0GVMxMwSvy27mt924srwjvnTppbqeu4cXhtDfg/PNdGiKuSPMha7jmTm40nEneW5O1tP0lDysnNzg8tjMYavB9ZcL0wzwaR+nCVSrFYizFLIchYcDSLoJGL5LzE9d7tAmx6Vil0LksX2dkMDtTNlyWW5VEEwoKhicJqUWaSFKNIf7MSelscu3LJ/KZaSh5Wc0ZwUzHLRIKceqh4gUyjCflCbg12qQJV1wHJuUyMh4CIGNJ8BMA7rtDgxVQ4oSW60WeGFAVPi424WRFSuhPjVDoGqhaBLPQaUSwtCHRHVAGlh2p02svgaKsvTVze8bGqyKEdDtz2rbzbE90MD8RW6AyzGnYYAgO0cJNiZHpQLX8AGSGLystWl1d8cV91/9pm8/w48+4NMPOdB4w41fPfLnUv1hxw2uiFngctun5GCcJJRnoGQiJitzAZateRfUk0h3V5OS9D4bw2QJtsMhSSNQXIJtOeAxj+TmDS7pj+h2p80k3Vb1vfpYhf28W289VfGtpyDLtga+81QCWasq3Pr6d7wS5b8P+uuitbcHseeNJ6Z9TEOI0zoWO5mbzhmtTntFUBte0c1S1w1CEJYF7W4MQW0IeJ6TpqlCoxXcVqG4ELb347q3y65eBI2CyEYAopOWyFLERYSLuocdhMBFmI7t9wMrZz5rfg4Jbd7o6ASpLmUSE1JL9uo+3ML+0GEeJYaBlNcp7NPPfc8FFUckVYDJWcwl2chY5SlIkOD6HlWDJC6+OAZwAnpQSAzxgYGb2xClHbBDbMwr8z+6k1W7p5Vl+JKhWbBvyypY0XVMXJkDvOsIGFj9om5ZO6MxdzluZy3gmGQ3ERgVVZ6YcoCJFOx4+rE16czb7r/qzT86wI99xqcdUqDxur+7ecVDzPpv7aGhd1qVofF2psAKK5B0ImpCs4MARJxR0s7G8iSa7Br4ZNKLAUNuhYlGG5N3OCtTMEQTXFCkJ6G4AWknnZJdPhVazrZh1/1FIOS9I5b6ucvjHVWVTUc7wvbByuQfyN28dN06fyqFVZwNHV+PxIVGMHbuTJQd3UnlhFutkreKMhVkSkKGY2CbYGBlBrkpWC4stxZUei05Ajp5r5PHmvxFAoH0BC4Yodq3UEdou1k1tOiRB1L27gx8uV7EgelFFAYiWrYuOVPSlXJKRYFTKqokYfnWDwKtASI4RZVo4YD3EXM7FjI24whY6IPj2hDNzoIxVKUEr4Vbz0SC4/kguygIbIJjYAJaQGZlA6ChO4VLJXi9bytMkYoen14GB20Wi9L0MwENi5ogc8hZARoZlndNSKg+rUV+8B54HMCTKfDW1vtOTGcuuu+9b992IPPl2TjnkAGNd61dy+6BI696yvbf1/bdFXa1At1OBHZ1mJKeyFcmaywhwXAcsHhOztzIUMRwljwsUD8CHciwJZzclRMYxhvW7Wy3BOzwTHtTaLI7Ai7vdAxzUxir+vqrXomMsEPihU1WnW7liDr3XtAB8/yOlC9MVL4aPPeInBSokA9gg8LtGxiQoaRhkZQsW+R1PKbVyyl0JhzRdHmKNhBsaNboqWNILfA//0XHFrmL4n/mHELAYWCys/R9wchPRxvUEFgkHvE4AnQ0i0pSqkZlaaxzIij4jIQ72yZwwnWWZgndazfwQWAbAIJXHFMJXkZdME3cdKImJ9ItkaCmQOD2hLLjfV+SQkp+nhH04EatkHwkOYIDe1GCuWAASwe3Jwpsai/GOYqesho0SNkrkVCRGaTTG79wps2vXH/VZc/bvDxkQOPMG269+Kk8+KBVnTi9YxqQBhaILAbTq4JqxWD6ASGyzDgEvg8ZOYtJcHCBZF2w0SoR1bZVChy1M5TYFubGxgnlPMji9IcjnvWwncQbFovn6X+96SbvKT65pm7bZzaE8dvm0PCvdCWsbKcZ2J6nXcwdGxIDdygMkjiDXErwwxBSnhWyAJoJivaPvq23CZiEzZSANEnAwJI2dXsOvorS7vyZ1auY9H9BtHUyjCoo7uXbEPWlqGjNsWvAcL0Aq9KPJNfAgTkootAXsIN/URMe5XoLC6qCGUsREOZSKNjipPk6WP2Z843KhsH5qSii7O8q9DwHKMuGwp40wVx4ISMtTOA7DqQ5Vv7Q5UpQBZDMV3B8MaJLU5gIKjD96EOt5Xn059v+8PL/e2Aw9eycdUiAxqs+e+srHpXOh9Jw4qVxkoMZBNB1sXwoAAQDD5N5aIGYccgzbN02qPKB+1ssZ9kmVkVa4IGYqlrGdj8X93nA72aJurtiwBN3PI/sumfnNj79u1zwqVuXZZ73kia4r6nH2QszyzmK5zApGRLhsLxok40jlnHjJAPbdyHpdmicA+ZDp9GEEMsMUoGUWofDDD0Cl/0FjfJKicdCsw9JTQPXr92JdKTRW2Nl/kT3/egeG517wC4eZO32ad46ia3RQgso6RSWTmpKYtVShleX1wuTqsFO4DJu0kxgfWxfu7W41p4G6J4b0ga/aw8PCx3ZUgYBcxo4XzEPg31QqEmqu2hRps2gXA7yYqDVhFWm+o/q1Nb3Pfy+d/zguZg3e/qMBQ8aL7rhX06YCkbXsqHx85+abkGlNgmtNIE8QINlBjICcAyH+AhZksDEaA3a7SZkKFNn5+A5VtyY2nL/sorzk3FmfteL2g+Q4XudAAAQo0lEQVQt8/jOr15+aHRaPpuT46K1a4PUWblmm2AXpF7lTbNcnZb74USqDOhmAmzPp6x9jqLJngs8TWjR4ELF0B9zFyiH2MXxJwNrSaHznDhj3owi/5c9vLQ86kB1hhY7Pb77ZxQU/AIFNBYU3Th9g+ayjKGf/kXBjH5YVpcxL4MJR52nKBe+Caa0KfE9yLfQaZ4yZ6GP7V3RPDGk+b0luxVQmoOJfT1ZOrag6FccB9qdNlgTwyCjJglaY4QROga4kkNry4b2UWb+/tXbH/7Y+muvPSjs2H2dawsaNF5/3bqJjWNjf7SJq/cyG0lbyPD0IZWcEntYBfGtkHpHRBqBZ5vAMBMuEy7SzqaKYz3sCHE/450vV9zuhrvf9rbWvg7MYj/udTfeetwM+BfMKPOlbbAvqE4sW7Wl3gBvZBQSBZBFHTAqIYXxnuNA1GkBZBzcSoW2Jo7vEXuVRJcHXrtUTwrQ2D0JSvt+lJsTXeDq+4Lo1Vo+93fNm9DviX5dJnR1lIKTuuxGpc8tqO6a0VlGIXgyggYDEzPkur2o/1ZFnqZvDVECzbxu5t20vj8dcJR9QP2qSw4MrRI6KeVhWtgq75gArTY4aCjOY3CSNjhR/cvjSevan/2P9zzvzmsLFzTy3DjlU1/7rceT5M+rq9YcLXBuYu3cURRWioyK+8Bcn6gPSdSE0AGV1Lc/MeGz/zdmwDcrafaTlz/14FOL3R3smQDcRWtvH5+ynXN2pPzNTTBfbo9NnNDN0U3MIsIcNWdhIdR1wHQ0AU6lKfhBFeJGEwwPZfD2/CojjRI0MBwfBBBMSurooXial54yxVtqT7tdNgc9+0kddRSt5QOYoIlo/ZfWPin6Y8rghkhtdpGT0ZFF2Wi46zfaA2jtIiC965mDIDIHPLFahGVVBeBlmHOzQHo2CNSd5TFKKIKHZeHW1P0Tovun97/3dxaEedKCBY1XfOabL93E/I/w6tCLp7sxVIIhaDbrYNkSqpUQ4noEFS+A+syUsnK5peYZjywL2fc9Ef0/tx39/FARenkmC/7ZPBc9bNumf95OZVzSBOs8Z2jslBbnho0NctjHaqAbG3YKY/JTgedXCECQF7O/oDF3NfeVx7QEoe7bGWz5LxcaPfXnyCGS913v7XQOokigFs1x5S8pB0LyIYUGWznze5FC/316u5eBVuFBB/k5YFSUivd2L+bzVejfyNBFdEMFNG4DZIrMqjBx71gCQpODMbt9elJFf+ImOz5/1x/8Qby3z3kufr8gQePiT9267NHc+quGP/zbO1IFTq1G+1GUlHOkAIFdnL4PqhttruT5vYGMPzNuyIdfvuHuDUtRxTObNkgem3LdM7dl/M2R4702BuNUFlaoeS2KOQRDNUh4DhkXYCFDVmL1Y+ApPLBodQRRRBK7PKh1L4wiYtXAgt2NOnsJGoOg0AODeZEGcUnKsAXfSzeO7CKJ2AOl8tp7ydOia7WIeAaLJlR16UUwRXl4Nytob9uT3h0qRI9c5kI604HxyjgkU7MwOhRCM5qG8dB8krV3rF3eqX9i/Xvf0Xhmd/bZO3tBgsaLP/uNd2zM4I/jYOg4a2gMOqiADSkwnoHRbCRjrveEkaX3TDjWN8Oo/v31V122/dkbkqV3whE4/6Z/99qq9ZK27byxkcoLWG34hGYqbY7tU+hxWviiSOADUYHmGPQmFTIei+EcXEi6wFk89YvGN31YceZgnqDMZOKvKflRAMwupdDik3oKWPheumSsKabYTTJ3upNkALX6FlWSwWso+Cp9cCpMtwtP3RKXKFKYE9X0wURT0ol7rDut6Vr63cf0jRnKI0rw3QBEowWr/BCinVui0IMHQtX9h7HO1LqFBBgDd2nhLJRXf+Lmc58yax9uDY2+fCdyAHwfOI/BgxRGc/74WJrcHnbbt086zn23LfJS6UK4K0gY29S2T+7Y7I0t0/7VljBPBCdckZsuxFKCXQshSWOqAmA7P4r84CJwsMtXCFowWBonzRqUASyElPHnAkuJhRp3T/SnFKEh4MDMZEG6KisrVB7Rrvc6hCj8cAs6O7Ww97hhJSBo0NDrW4MO5T57iIY/3kPplLKjGm4wuWphvw627iMnyFQgGBLI9L+R3UnELDSZou2HQW59dK1cUMu/pRB2dR5G5ajC6lICNEtboOIWjAJPK2n7lpE0uu6oCevufWn7f67nyYKKNLAk+NiUe22rMvoua9nqWivPIYpb6UjIfrGc5T+AqW03r7Lhvm/+zmWzz/VAHe6fh81031hx2rF107yoC+zNXWWekAeVcSTaVcfGIOU5dLsJ+F4FujGKAbnUMIhO9ViapcVKDMecGJzYgYtPehIUoie9blaDHGnbReMJWUXo3g96Qmtee7HXKJ7YRVRC/UIFv4M6dHHBljiAUQYu+AI0SOeU/EYGa6nlwQPg0U9u9LY4lkTwUQQguPNRLn4LRR3P/aZAzbwFZHVmCIy6rMsQ70QKEs21mU30fOq1QVq8JUE0dmwcFp2bVir+D3deffmmhTrnFhRovGnt51c8kbC/b9ruy1qYg/Ocx4dA/vsomOsmRbrhK1e/aWahDuRhc115brz6xq+cVDeM17aZd3HHrLwwEkYNq1hY3UokGi0Z1N/jVkPoYhRSiDHjotLdqboJDh3t7ELZS/d89NvjdRUDiVlFK3/Rrq93EKUzWb8ki4nOssyqI4m5kcOcKANxqNjmIABQxbaortA1lFFIuTrKRIZuwdUys0UDpOQmgYOW40BAyyiyQukUPNZ2KqCQKt5FTRObeC34dsy2gKdt4LwNY8xUo1L8sNJsfGyFbX3t9isv6i7k+bSgQOP1113nzoqhd0YWezVzncdqvvO9yU7ygy89jzz7hXzznu9r+7Wbbj9+Z2b+aoNbb+8qdVIwOTk5k6aQOQ4kWKrFJjJspUXFMlww2JqG68rSoMFTAQwb1DAIoUXYZ3KW341KvoVRVU8MZ86sLRrtevqtg1wLyjZovbKCylHkRXu5kRI0er0uAx22VAst36IEq4JBqgMnVE/TTXQczR1QWoBsILCZGK2PbIg7MThOAI6DNHwBGWpiWDbwbgwTI35kdrdv8KL6LUfn7Ivr3/2mnz3f93RfPn9BgUZ5wZdef9NygLCzBBb7cguf/2PetPbmFZHtv2Yz52/dKvLTKkccuXKmywGFxDyUKaT2b+zz0NR/5HtoGQMFlsQSLoJIsfhRwQqbCIune9+nFgGlSFbMcSmbv83oU877K1774M5BgHJrUpDBSsUwCjKKvjXN/9A/IIEF3WzSy4sgCGL+xrRsyD1GUot0jVwSm9PkWgeW84REqB2PQZamUPU9SFqdx5y4ddtYOv3F05d5Dy4kJfa9zagFCRp7u+il3y/MEXj9Z9ZNRHb15U1WuXzD9vrZ7sjEkYYXkPUlNm+i0hhHuUCykDBBSQNs0B6ppDdaKLsbpqRkpvZ1KXgglLnU+waibhfWDFT9IEuIwTEpIoQ5OYvdgcbAFgabXgdSJgQcZtHJWmxlENh0+VdzS/D6Sq3YjAyhdSLUzlFB3ERJZgCZYloUTEtC1JyWoWM8EUD+LdVu/+vqSeNHd1122YLgXuzPjFoCjf0ZraVj92kEfnPt7eMzrHb6ljS9uG6y87oGnIrKyBZWwrAKim32DJOABiiJgIEPcHyqIytT/62DihIQir1FT8G4WOwkg170tgxURvS584ghWB2hbvx5AsHlCqAFP//raaLZHDlmKt0WQtUGOs5plXZUU7RRDQR/j5IDGTI9EXkUDAcMOo1tT6ysOLeFWf3Llmw8eMc73/m8WRDs0018moOWQOOZjuDS+XscAVIZM73Td4J4Xcdgr5LMPbYLxirsbcmxeoIi0MhTwO0LKpyg/WPB3yDAKP9oVOl/Trk9oZ9h+ziWO/su7hSUkAtDwQjBw5CSQZGEBg0SRKZwoThufsm1bIgpQIPYJ6gLOw80pMW0X45E02xBFopoaemi8kAuNjGhmpWcf9c30q+NRI17vn7Nod//tAQaS4v+oI8ACiht9lYfvSXh/ym2vXM70jjb9oaObaE049gwNLH927TBMm2IE2wysqgZjkqSuCALzkdJ7MolB4bSB5hkxb0OqqlL7PPCfhlBtHdU8OIi0cpbqAafG8C7CfFHHBSgTtATB6UCMzCwbR5FiE2LVOORX+LYqDMrtPIZijgJAWGtBlEUkeogWlCgHqlpWhD6Aaml+yaQ9ypvTD8x6dp31fLk27Vu+04XWpu/fs01czv7DvqoH7wPWAKNgze2S++8mxG44B++PNbmzrmpsi+MTHZeg5kn5GElRGFow3JBSAMqQ6MwM9sCJwxIDyPjGTDHBoXubFxAWHFJtS23cm3XgCQzjlsD3Clg+ZNBO+1S3oR4HhmHihuAIu8ZgE7SBXDRkAhXP51EthMYRaA0JJZFUXAIxYkQtBBEKpUKdKanwEHJQSFguFqDbtQmuULPAlCdzrZh23jETVt3MNH91qjV+vn6K6+cXoyTYAk0FuNdPQS+Ezqb2TB5/M7cfmVLma8zPf9kYbE1zYRbdnUEmmlG2xdsiguHRyGa2kEdtZ6DeqFtGAor0JUpJNgRiqzLGKMO3KZYJDaccgEO+t6gxQHnJGAcuB4kMgWUPsw9NALPAbO06LJHokBcgExSGB4bg8bWrTC8ciW0mnXwmEMGVwg+Dvai5gqyTjdmNmxVvLu5aoifjKjkO8sc+75zNt6zc7H3Py2BxiGwwBb7Jb7uxm+MthN+Ytu0Lkwd9yUNIY5RldpkW6pqdXQCptst/aRvNsG2bPAL68kcfWRDBk4Y0tbDs1ySz0O3Ott2IOOcnOiQlYpZkyxLKFqxfDTJEgBRF0bGV0G3GWkpQ98DlQvgPIOxsTGY3roZhoeHoVOfhcAwedZozY65fmOyOrSBR93/qFjmHR4TP5sIp6YWIt37YM2bJdA4WCO79L77PQJIVb/nyFPH4jw8cnvGz5aVyktmM358h4vjxleunEQ69vZtO6FarYJjo+6EIop6zDEqccjfhTxLcgtCJyDPGtx9WMwEx3egNbsDvGqFRAJtJUnUl3c4hF5IEYgfetBJI8pVKCVi05BRt9mcGg+CRwIhHwoSce+YYT86wq2p06d+UF/sEcWebuASaOz31F464bkagdd+7nNhI/Um7VrtrC076ic7teFT2wlfXqnV3J1TM2O+H7qGzIOIZ763bNKLVG5jZcb1AshjCa6tfXKVmUOiEvA8B1iO+Y9MwmwrdgCSXKk0DINuFEWJ67JE8njWcextWdp5sOqwX0KaPDFc86bu/MUD03DttXtS4nmuhmRBfM4SaCyI27B0EXsdgTw3Lrrh33xVMdxGIifBdCdFR07awhoxa5U1G5JWjVerQeoy33HDCm9lQ4HjBVLlKreMTjNriWUTI3UxXVdGfaZxtFOrq247FnY2A6bYWGP2TttQ027H7KSWG3/9mjcsmmrHXsd2Pw9YAo39HLClwxfmCNDWZuzFbHYUXGH6jmcwx4qlBeCDsHlqWorPNgSfPAWS9eefr7nqS68DGoEl0DigYVs6aWkEDt8RWAKNw/feL33zpRE4oBFYAo0DGralk5ZG4PAdgSXQOHzv/dI3XxqBAxqBJdA4oGFbOmlpBA7fEVgCjcP33i9986UROKARWAKNAxq2pZOWRuDwHYEl0Dh87/3SN18agQMagf8f+cV05PZxP6EAAAAASUVORK5CYII=;labelBorderColor=none;imageBorder=light-dark(#000000,#03ACD7);" vertex="1" parent="1">
          <mxGeometry x="870" y="570" width="124.5" height="99.97" as="geometry" />
        </mxCell>
        <mxCell id="BnGcvVGwKc2fh8Fx1BBk-39" style="edgeStyle=orthogonalEdgeStyle;rounded=0;orthogonalLoop=1;jettySize=auto;html=1;entryX=0.059;entryY=-0.008;entryDx=0;entryDy=0;entryPerimeter=0;" edge="1" parent="1" source="BnGcvVGwKc2fh8Fx1BBk-9" target="BnGcvVGwKc2fh8Fx1BBk-37">
          <mxGeometry relative="1" as="geometry" />
        </mxCell>
      </root>
    </mxGraphModel>
  </diagram>
</mxfile>
